<svg width="173" height="55" viewBox="0 0 173 55" fill="none" xmlns="http://www.w3.org/2000/svg">
<rect x="1.5" y="1.5" width="170" height="52" rx="26" fill="white" stroke="#090909" stroke-width="3"/>
<mask id="path-2-inside-1_2424_78" fill="white">
<path d="M63.3089 33.2033H67.4841L65.9894 29.2221C65.7837 28.6721 65.5814 28.0646 65.382 27.3993C65.2021 27.9879 65.0059 28.5889 64.7938 29.2029L63.3089 33.2033ZM68.1976 35.0933H62.605L61.2361 38.8156H58.7773L64.2539 24.9146H66.5777L72.1797 38.8156H69.5958L68.1976 35.0933Z"/>
<path d="M79.433 36.2877C79.9183 35.6387 80.161 34.6904 80.161 33.4432C80.161 32.2858 79.9601 31.4461 79.5584 30.9247C79.1565 30.4036 78.6214 30.143 77.9529 30.143C77.4901 30.143 77.0627 30.252 76.6706 30.4692C76.2785 30.6867 75.9056 30.9776 75.552 31.3422V36.8873C75.7899 37.0023 76.0664 37.0936 76.3814 37.1604C76.6964 37.228 77.0082 37.2616 77.3165 37.2616C78.2424 37.2616 78.9476 36.9367 79.433 36.2877ZM73.1706 30.9969C73.1706 30.2294 73.1448 29.3851 73.0936 28.4642H75.3304C75.4138 28.8928 75.4718 29.331 75.5039 29.7785C76.4295 28.7746 77.4901 28.2722 78.6858 28.2722C79.3801 28.2722 80.0228 28.4465 80.6143 28.795C81.2054 29.1437 81.6828 29.6937 82.0459 30.4451C82.4093 31.1967 82.5908 32.1515 82.5908 33.3089C82.5908 34.5177 82.3835 35.5507 81.9688 36.4076C81.5542 37.2648 80.9742 37.9137 80.2285 38.3552C79.4829 38.7963 78.6214 39.0171 77.6446 39.0171C76.9372 39.0171 76.2397 38.8987 75.552 38.6622V42.9407L73.1706 43.1422V30.9969Z"/>
<path d="M90.2985 36.2877C90.7839 35.6387 91.0266 34.6904 91.0266 33.4432C91.0266 32.2858 90.8256 31.4461 90.424 30.9247C90.0221 30.4036 89.487 30.143 88.8184 30.143C88.3557 30.143 87.9282 30.252 87.5362 30.4692C87.1438 30.6867 86.7711 30.9776 86.4176 31.3422V36.8873C86.6555 37.0023 86.9317 37.0936 87.247 37.1604C87.5617 37.228 87.8734 37.2616 88.1821 37.2616C89.1076 37.2616 89.8131 36.9367 90.2985 36.2877ZM84.0359 30.9969C84.0359 30.2294 84.0101 29.3851 83.9588 28.4642H86.1959C86.2794 28.8928 86.3373 29.331 86.3695 29.7785C87.2951 28.7746 88.3557 28.2722 89.5513 28.2722C90.2456 28.2722 90.888 28.4465 91.4798 28.795C92.0709 29.1437 92.5484 29.6937 92.9118 30.4451C93.2745 31.1967 93.4564 32.1515 93.4564 33.3089C93.4564 34.5177 93.2487 35.5507 92.8344 36.4076C92.4197 37.2648 91.8394 37.9137 91.0941 38.3552C90.3482 38.7963 89.487 39.0171 88.5098 39.0171C87.8027 39.0171 87.1052 38.8987 86.4176 38.6622V42.9407L84.0359 43.1422V30.9969Z"/>
<path d="M97.8313 38.1584C96.8026 37.5927 96.012 36.7818 95.4595 35.7265C94.9062 34.6712 94.6301 33.424 94.6301 31.985C94.6301 30.4246 94.9483 29.0989 95.5846 28.0083C96.221 26.9181 97.0873 26.0994 98.1829 25.5525C99.2792 25.0057 100.508 24.7323 101.871 24.7323C102.675 24.7323 103.441 24.8203 104.171 24.996C104.9 25.1721 105.58 25.4133 106.21 25.7205L105.603 27.5431C104.336 26.942 103.128 26.6413 101.978 26.6413C101.007 26.6413 100.157 26.8477 99.4273 27.2602C98.6976 27.6728 98.1301 28.2788 97.7253 29.0782C97.3201 29.8777 97.1179 30.8434 97.1179 31.9753C97.1179 32.967 97.2736 33.8461 97.5851 34.6136C97.8972 35.3811 98.389 35.9889 99.0607 36.4364C99.7324 36.8841 100.579 37.1078 101.601 37.1078C102.064 37.1078 102.527 37.0696 102.99 36.9928C103.453 36.9162 103.887 36.8043 104.291 36.657V33.8461H101.062V32.0042H106.606V37.8564C105.808 38.2271 104.971 38.5121 104.094 38.7101C103.216 38.9082 102.344 39.0073 101.476 39.0073C100.075 39.0073 98.8594 38.7247 97.8313 38.1584Z"/>
<path d="M113.642 36.8968C114.137 36.6604 114.542 36.366 114.857 36.0143V34.0956C114.207 34.0254 113.677 33.9901 113.266 33.9901C112.282 33.9901 111.602 34.1482 111.227 34.4651C110.85 34.7812 110.662 35.2084 110.662 35.7455C110.662 36.2576 110.799 36.6363 111.072 36.8825C111.346 37.1288 111.717 37.2518 112.186 37.2518C112.661 37.2518 113.147 37.1336 113.642 36.8968ZM115.069 38.8156C114.985 38.4125 114.93 37.9555 114.905 37.4438C114.538 37.8789 114.061 38.248 113.473 38.5519C112.885 38.8556 112.221 39.0073 111.482 39.0073C110.884 39.0073 110.339 38.8907 109.847 38.6571C109.356 38.4239 108.965 38.0721 108.676 37.6018C108.387 37.132 108.242 36.5581 108.242 35.8798C108.242 34.8759 108.605 34.0748 109.332 33.4766C110.058 32.8787 111.27 32.5798 112.967 32.5798C113.603 32.5798 114.233 32.6247 114.857 32.7141V32.5127C114.857 31.5981 114.66 30.9538 114.268 30.5794C113.876 30.2055 113.314 30.0184 112.581 30.0184C112.073 30.0184 111.53 30.092 110.952 30.239C110.373 30.3863 109.865 30.5621 109.428 30.7667L109.052 29.0398C109.476 28.8478 110.036 28.6721 110.73 28.5121C111.424 28.3524 112.157 28.2722 112.928 28.2722C113.828 28.2722 114.593 28.4081 115.223 28.6798C115.853 28.9518 116.345 29.4189 116.698 30.0805C117.052 30.7428 117.229 31.6334 117.229 32.7525V36.8679C117.229 37.2967 117.254 37.9461 117.306 38.8156H115.069Z"/>
<path d="M119.056 36.3308V24.0991L121.428 23.9072V35.9087C121.428 36.3501 121.503 36.6617 121.654 36.8441C121.805 37.0261 122.044 37.1177 122.373 37.1177C122.52 37.1177 122.729 37.0826 122.999 37.0121L123.279 38.7101C123.054 38.7997 122.779 38.8717 122.455 38.9259C122.13 38.9801 121.823 39.0073 121.534 39.0073C119.881 39.0073 119.056 38.1153 119.056 36.3308Z"/>
<path d="M124.986 36.3308V24.0991L127.357 23.9072V35.9087C127.357 36.3501 127.433 36.6617 127.584 36.8441C127.735 37.0261 127.975 37.1177 128.302 37.1177C128.45 37.1177 128.659 37.0826 128.929 37.0121L129.209 38.7101C128.984 38.7997 128.709 38.8717 128.385 38.9259C128.06 38.9801 127.753 39.0073 127.463 39.0073C125.811 39.0073 124.986 38.1153 124.986 36.3308Z"/>
<path d="M136.641 32.436C136.594 31.6109 136.386 30.9922 136.014 30.5794C135.641 30.1672 135.141 29.9607 134.52 29.9607C133.915 29.9607 133.412 30.1688 133.01 30.5843C132.609 31.0003 132.345 31.6174 132.224 32.436H136.641ZM138.963 33.9421H132.157C132.265 36.1103 133.303 37.1944 135.272 37.1944C135.759 37.1944 136.259 37.1352 136.772 37.017C137.282 36.8984 137.772 36.7403 138.24 36.5419L138.763 38.1631C137.597 38.7262 136.291 39.0073 134.839 39.0073C133.73 39.0073 132.8 38.7997 132.042 38.3839C131.281 37.9683 130.711 37.3703 130.329 36.5898C129.947 35.8099 129.756 34.8696 129.756 33.7694C129.756 32.6247 129.958 31.6396 130.364 30.8146C130.768 29.9895 131.332 29.3597 132.055 28.9247C132.778 28.4898 133.612 28.2722 134.558 28.2722C135.543 28.2722 136.361 28.501 137.02 28.9584C137.68 29.4154 138.167 30.0248 138.485 30.7857C138.804 31.5472 138.963 32.3879 138.963 33.3089V33.9421Z"/>
<path d="M140.766 31.064C140.766 30.495 140.737 29.6285 140.686 28.4642H142.916C142.954 28.752 142.989 29.0958 143.027 29.4956C143.062 29.8952 143.085 30.2198 143.097 30.4692C143.374 30.0152 143.645 29.633 143.913 29.3229C144.18 29.0125 144.492 28.7601 144.849 28.5647C145.206 28.3698 145.61 28.2722 146.069 28.2722C146.435 28.2722 146.747 28.3107 147.012 28.3875L146.712 30.4405C146.483 30.3702 146.225 30.3349 145.941 30.3349C145.384 30.3349 144.894 30.4773 144.476 30.762C144.059 31.0463 143.613 31.5148 143.135 32.1672V38.8156H140.766V31.064Z"/>
<path d="M148.349 43.051C148.002 42.9905 147.715 42.9216 147.493 42.845L147.926 41.1182C148.085 41.1626 148.289 41.2059 148.534 41.2475C148.776 41.2894 149.009 41.3099 149.228 41.3099C150.283 41.3099 151.072 40.6349 151.598 39.2856L151.754 38.9019L147.916 28.4642H150.471L152.401 34.297C152.713 35.2949 152.917 36.0592 153.006 36.5898C153.187 35.8416 153.397 35.0933 153.643 34.345L155.602 28.4642H158L154.175 38.95C153.815 39.9412 153.423 40.7405 153.006 41.3483C152.589 41.9557 152.095 42.4067 151.528 42.701C150.958 42.9949 150.273 43.1422 149.467 43.1422C149.069 43.1422 148.696 43.1121 148.349 43.051Z"/>
</mask>
<path d="M63.3089 33.2033H67.4841L65.9894 29.2221C65.7837 28.6721 65.5814 28.0646 65.382 27.3993C65.2021 27.9879 65.0059 28.5889 64.7938 29.2029L63.3089 33.2033ZM68.1976 35.0933H62.605L61.2361 38.8156H58.7773L64.2539 24.9146H66.5777L72.1797 38.8156H69.5958L68.1976 35.0933Z" fill="#090909"/>
<path d="M79.433 36.2877C79.9183 35.6387 80.161 34.6904 80.161 33.4432C80.161 32.2858 79.9601 31.4461 79.5584 30.9247C79.1565 30.4036 78.6214 30.143 77.9529 30.143C77.4901 30.143 77.0627 30.252 76.6706 30.4692C76.2785 30.6867 75.9056 30.9776 75.552 31.3422V36.8873C75.7899 37.0023 76.0664 37.0936 76.3814 37.1604C76.6964 37.228 77.0082 37.2616 77.3165 37.2616C78.2424 37.2616 78.9476 36.9367 79.433 36.2877ZM73.1706 30.9969C73.1706 30.2294 73.1448 29.3851 73.0936 28.4642H75.3304C75.4138 28.8928 75.4718 29.331 75.5039 29.7785C76.4295 28.7746 77.4901 28.2722 78.6858 28.2722C79.3801 28.2722 80.0228 28.4465 80.6143 28.795C81.2054 29.1437 81.6828 29.6937 82.0459 30.4451C82.4093 31.1967 82.5908 32.1515 82.5908 33.3089C82.5908 34.5177 82.3835 35.5507 81.9688 36.4076C81.5542 37.2648 80.9742 37.9137 80.2285 38.3552C79.4829 38.7963 78.6214 39.0171 77.6446 39.0171C76.9372 39.0171 76.2397 38.8987 75.552 38.6622V42.9407L73.1706 43.1422V30.9969Z" fill="#090909"/>
<path d="M90.2985 36.2877C90.7839 35.6387 91.0266 34.6904 91.0266 33.4432C91.0266 32.2858 90.8256 31.4461 90.424 30.9247C90.0221 30.4036 89.487 30.143 88.8184 30.143C88.3557 30.143 87.9282 30.252 87.5362 30.4692C87.1438 30.6867 86.7711 30.9776 86.4176 31.3422V36.8873C86.6555 37.0023 86.9317 37.0936 87.247 37.1604C87.5617 37.228 87.8734 37.2616 88.1821 37.2616C89.1076 37.2616 89.8131 36.9367 90.2985 36.2877ZM84.0359 30.9969C84.0359 30.2294 84.0101 29.3851 83.9588 28.4642H86.1959C86.2794 28.8928 86.3373 29.331 86.3695 29.7785C87.2951 28.7746 88.3557 28.2722 89.5513 28.2722C90.2456 28.2722 90.888 28.4465 91.4798 28.795C92.0709 29.1437 92.5484 29.6937 92.9118 30.4451C93.2745 31.1967 93.4564 32.1515 93.4564 33.3089C93.4564 34.5177 93.2487 35.5507 92.8344 36.4076C92.4197 37.2648 91.8394 37.9137 91.0941 38.3552C90.3482 38.7963 89.487 39.0171 88.5098 39.0171C87.8027 39.0171 87.1052 38.8987 86.4176 38.6622V42.9407L84.0359 43.1422V30.9969Z" fill="#090909"/>
<path d="M97.8313 38.1584C96.8026 37.5927 96.012 36.7818 95.4595 35.7265C94.9062 34.6712 94.6301 33.424 94.6301 31.985C94.6301 30.4246 94.9483 29.0989 95.5846 28.0083C96.221 26.9181 97.0873 26.0994 98.1829 25.5525C99.2792 25.0057 100.508 24.7323 101.871 24.7323C102.675 24.7323 103.441 24.8203 104.171 24.996C104.9 25.1721 105.58 25.4133 106.21 25.7205L105.603 27.5431C104.336 26.942 103.128 26.6413 101.978 26.6413C101.007 26.6413 100.157 26.8477 99.4273 27.2602C98.6976 27.6728 98.1301 28.2788 97.7253 29.0782C97.3201 29.8777 97.1179 30.8434 97.1179 31.9753C97.1179 32.967 97.2736 33.8461 97.5851 34.6136C97.8972 35.3811 98.389 35.9889 99.0607 36.4364C99.7324 36.8841 100.579 37.1078 101.601 37.1078C102.064 37.1078 102.527 37.0696 102.99 36.9928C103.453 36.9162 103.887 36.8043 104.291 36.657V33.8461H101.062V32.0042H106.606V37.8564C105.808 38.2271 104.971 38.5121 104.094 38.7101C103.216 38.9082 102.344 39.0073 101.476 39.0073C100.075 39.0073 98.8594 38.7247 97.8313 38.1584Z" fill="#090909"/>
<path d="M113.642 36.8968C114.137 36.6604 114.542 36.366 114.857 36.0143V34.0956C114.207 34.0254 113.677 33.9901 113.266 33.9901C112.282 33.9901 111.602 34.1482 111.227 34.4651C110.85 34.7812 110.662 35.2084 110.662 35.7455C110.662 36.2576 110.799 36.6363 111.072 36.8825C111.346 37.1288 111.717 37.2518 112.186 37.2518C112.661 37.2518 113.147 37.1336 113.642 36.8968ZM115.069 38.8156C114.985 38.4125 114.93 37.9555 114.905 37.4438C114.538 37.8789 114.061 38.248 113.473 38.5519C112.885 38.8556 112.221 39.0073 111.482 39.0073C110.884 39.0073 110.339 38.8907 109.847 38.6571C109.356 38.4239 108.965 38.0721 108.676 37.6018C108.387 37.132 108.242 36.5581 108.242 35.8798C108.242 34.8759 108.605 34.0748 109.332 33.4766C110.058 32.8787 111.27 32.5798 112.967 32.5798C113.603 32.5798 114.233 32.6247 114.857 32.7141V32.5127C114.857 31.5981 114.66 30.9538 114.268 30.5794C113.876 30.2055 113.314 30.0184 112.581 30.0184C112.073 30.0184 111.53 30.092 110.952 30.239C110.373 30.3863 109.865 30.5621 109.428 30.7667L109.052 29.0398C109.476 28.8478 110.036 28.6721 110.73 28.5121C111.424 28.3524 112.157 28.2722 112.928 28.2722C113.828 28.2722 114.593 28.4081 115.223 28.6798C115.853 28.9518 116.345 29.4189 116.698 30.0805C117.052 30.7428 117.229 31.6334 117.229 32.7525V36.8679C117.229 37.2967 117.254 37.9461 117.306 38.8156H115.069Z" fill="#090909"/>
<path d="M119.056 36.3308V24.0991L121.428 23.9072V35.9087C121.428 36.3501 121.503 36.6617 121.654 36.8441C121.805 37.0261 122.044 37.1177 122.373 37.1177C122.52 37.1177 122.729 37.0826 122.999 37.0121L123.279 38.7101C123.054 38.7997 122.779 38.8717 122.455 38.9259C122.13 38.9801 121.823 39.0073 121.534 39.0073C119.881 39.0073 119.056 38.1153 119.056 36.3308Z" fill="#090909"/>
<path d="M124.986 36.3308V24.0991L127.357 23.9072V35.9087C127.357 36.3501 127.433 36.6617 127.584 36.8441C127.735 37.0261 127.975 37.1177 128.302 37.1177C128.45 37.1177 128.659 37.0826 128.929 37.0121L129.209 38.7101C128.984 38.7997 128.709 38.8717 128.385 38.9259C128.06 38.9801 127.753 39.0073 127.463 39.0073C125.811 39.0073 124.986 38.1153 124.986 36.3308Z" fill="#090909"/>
<path d="M136.641 32.436C136.594 31.6109 136.386 30.9922 136.014 30.5794C135.641 30.1672 135.141 29.9607 134.52 29.9607C133.915 29.9607 133.412 30.1688 133.01 30.5843C132.609 31.0003 132.345 31.6174 132.224 32.436H136.641ZM138.963 33.9421H132.157C132.265 36.1103 133.303 37.1944 135.272 37.1944C135.759 37.1944 136.259 37.1352 136.772 37.017C137.282 36.8984 137.772 36.7403 138.24 36.5419L138.763 38.1631C137.597 38.7262 136.291 39.0073 134.839 39.0073C133.73 39.0073 132.8 38.7997 132.042 38.3839C131.281 37.9683 130.711 37.3703 130.329 36.5898C129.947 35.8099 129.756 34.8696 129.756 33.7694C129.756 32.6247 129.958 31.6396 130.364 30.8146C130.768 29.9895 131.332 29.3597 132.055 28.9247C132.778 28.4898 133.612 28.2722 134.558 28.2722C135.543 28.2722 136.361 28.501 137.02 28.9584C137.68 29.4154 138.167 30.0248 138.485 30.7857C138.804 31.5472 138.963 32.3879 138.963 33.3089V33.9421Z" fill="#090909"/>
<path d="M140.766 31.064C140.766 30.495 140.737 29.6285 140.686 28.4642H142.916C142.954 28.752 142.989 29.0958 143.027 29.4956C143.062 29.8952 143.085 30.2198 143.097 30.4692C143.374 30.0152 143.645 29.633 143.913 29.3229C144.18 29.0125 144.492 28.7601 144.849 28.5647C145.206 28.3698 145.61 28.2722 146.069 28.2722C146.435 28.2722 146.747 28.3107 147.012 28.3875L146.712 30.4405C146.483 30.3702 146.225 30.3349 145.941 30.3349C145.384 30.3349 144.894 30.4773 144.476 30.762C144.059 31.0463 143.613 31.5148 143.135 32.1672V38.8156H140.766V31.064Z" fill="#090909"/>
<path d="M148.349 43.051C148.002 42.9905 147.715 42.9216 147.493 42.845L147.926 41.1182C148.085 41.1626 148.289 41.2059 148.534 41.2475C148.776 41.2894 149.009 41.3099 149.228 41.3099C150.283 41.3099 151.072 40.6349 151.598 39.2856L151.754 38.9019L147.916 28.4642H150.471L152.401 34.297C152.713 35.2949 152.917 36.0592 153.006 36.5898C153.187 35.8416 153.397 35.0933 153.643 34.345L155.602 28.4642H158L154.175 38.95C153.815 39.9412 153.423 40.7405 153.006 41.3483C152.589 41.9557 152.095 42.4067 151.528 42.701C150.958 42.9949 150.273 43.1422 149.467 43.1422C149.069 43.1422 148.696 43.1121 148.349 43.051Z" fill="#090909"/>
<path d="M63.3089 33.2033H67.4841L65.9894 29.2221C65.7837 28.6721 65.5814 28.0646 65.382 27.3993C65.2021 27.9879 65.0059 28.5889 64.7938 29.2029L63.3089 33.2033ZM68.1976 35.0933H62.605L61.2361 38.8156H58.7773L64.2539 24.9146H66.5777L72.1797 38.8156H69.5958L68.1976 35.0933Z" stroke="#090909" stroke-width="1.39632" mask="url(#path-2-inside-1_2424_78)"/>
<path d="M79.433 36.2877C79.9183 35.6387 80.161 34.6904 80.161 33.4432C80.161 32.2858 79.9601 31.4461 79.5584 30.9247C79.1565 30.4036 78.6214 30.143 77.9529 30.143C77.4901 30.143 77.0627 30.252 76.6706 30.4692C76.2785 30.6867 75.9056 30.9776 75.552 31.3422V36.8873C75.7899 37.0023 76.0664 37.0936 76.3814 37.1604C76.6964 37.228 77.0082 37.2616 77.3165 37.2616C78.2424 37.2616 78.9476 36.9367 79.433 36.2877ZM73.1706 30.9969C73.1706 30.2294 73.1448 29.3851 73.0936 28.4642H75.3304C75.4138 28.8928 75.4718 29.331 75.5039 29.7785C76.4295 28.7746 77.4901 28.2722 78.6858 28.2722C79.3801 28.2722 80.0228 28.4465 80.6143 28.795C81.2054 29.1437 81.6828 29.6937 82.0459 30.4451C82.4093 31.1967 82.5908 32.1515 82.5908 33.3089C82.5908 34.5177 82.3835 35.5507 81.9688 36.4076C81.5542 37.2648 80.9742 37.9137 80.2285 38.3552C79.4829 38.7963 78.6214 39.0171 77.6446 39.0171C76.9372 39.0171 76.2397 38.8987 75.552 38.6622V42.9407L73.1706 43.1422V30.9969Z" stroke="#090909" stroke-width="1.39632" mask="url(#path-2-inside-1_2424_78)"/>
<path d="M90.2985 36.2877C90.7839 35.6387 91.0266 34.6904 91.0266 33.4432C91.0266 32.2858 90.8256 31.4461 90.424 30.9247C90.0221 30.4036 89.487 30.143 88.8184 30.143C88.3557 30.143 87.9282 30.252 87.5362 30.4692C87.1438 30.6867 86.7711 30.9776 86.4176 31.3422V36.8873C86.6555 37.0023 86.9317 37.0936 87.247 37.1604C87.5617 37.228 87.8734 37.2616 88.1821 37.2616C89.1076 37.2616 89.8131 36.9367 90.2985 36.2877ZM84.0359 30.9969C84.0359 30.2294 84.0101 29.3851 83.9588 28.4642H86.1959C86.2794 28.8928 86.3373 29.331 86.3695 29.7785C87.2951 28.7746 88.3557 28.2722 89.5513 28.2722C90.2456 28.2722 90.888 28.4465 91.4798 28.795C92.0709 29.1437 92.5484 29.6937 92.9118 30.4451C93.2745 31.1967 93.4564 32.1515 93.4564 33.3089C93.4564 34.5177 93.2487 35.5507 92.8344 36.4076C92.4197 37.2648 91.8394 37.9137 91.0941 38.3552C90.3482 38.7963 89.487 39.0171 88.5098 39.0171C87.8027 39.0171 87.1052 38.8987 86.4176 38.6622V42.9407L84.0359 43.1422V30.9969Z" stroke="#090909" stroke-width="1.39632" mask="url(#path-2-inside-1_2424_78)"/>
<path d="M97.8313 38.1584C96.8026 37.5927 96.012 36.7818 95.4595 35.7265C94.9062 34.6712 94.6301 33.424 94.6301 31.985C94.6301 30.4246 94.9483 29.0989 95.5846 28.0083C96.221 26.9181 97.0873 26.0994 98.1829 25.5525C99.2792 25.0057 100.508 24.7323 101.871 24.7323C102.675 24.7323 103.441 24.8203 104.171 24.996C104.9 25.1721 105.58 25.4133 106.21 25.7205L105.603 27.5431C104.336 26.942 103.128 26.6413 101.978 26.6413C101.007 26.6413 100.157 26.8477 99.4273 27.2602C98.6976 27.6728 98.1301 28.2788 97.7253 29.0782C97.3201 29.8777 97.1179 30.8434 97.1179 31.9753C97.1179 32.967 97.2736 33.8461 97.5851 34.6136C97.8972 35.3811 98.389 35.9889 99.0607 36.4364C99.7324 36.8841 100.579 37.1078 101.601 37.1078C102.064 37.1078 102.527 37.0696 102.99 36.9928C103.453 36.9162 103.887 36.8043 104.291 36.657V33.8461H101.062V32.0042H106.606V37.8564C105.808 38.2271 104.971 38.5121 104.094 38.7101C103.216 38.9082 102.344 39.0073 101.476 39.0073C100.075 39.0073 98.8594 38.7247 97.8313 38.1584Z" stroke="#090909" stroke-width="1.39632" mask="url(#path-2-inside-1_2424_78)"/>
<path d="M113.642 36.8968C114.137 36.6604 114.542 36.366 114.857 36.0143V34.0956C114.207 34.0254 113.677 33.9901 113.266 33.9901C112.282 33.9901 111.602 34.1482 111.227 34.4651C110.85 34.7812 110.662 35.2084 110.662 35.7455C110.662 36.2576 110.799 36.6363 111.072 36.8825C111.346 37.1288 111.717 37.2518 112.186 37.2518C112.661 37.2518 113.147 37.1336 113.642 36.8968ZM115.069 38.8156C114.985 38.4125 114.93 37.9555 114.905 37.4438C114.538 37.8789 114.061 38.248 113.473 38.5519C112.885 38.8556 112.221 39.0073 111.482 39.0073C110.884 39.0073 110.339 38.8907 109.847 38.6571C109.356 38.4239 108.965 38.0721 108.676 37.6018C108.387 37.132 108.242 36.5581 108.242 35.8798C108.242 34.8759 108.605 34.0748 109.332 33.4766C110.058 32.8787 111.27 32.5798 112.967 32.5798C113.603 32.5798 114.233 32.6247 114.857 32.7141V32.5127C114.857 31.5981 114.66 30.9538 114.268 30.5794C113.876 30.2055 113.314 30.0184 112.581 30.0184C112.073 30.0184 111.53 30.092 110.952 30.239C110.373 30.3863 109.865 30.5621 109.428 30.7667L109.052 29.0398C109.476 28.8478 110.036 28.6721 110.73 28.5121C111.424 28.3524 112.157 28.2722 112.928 28.2722C113.828 28.2722 114.593 28.4081 115.223 28.6798C115.853 28.9518 116.345 29.4189 116.698 30.0805C117.052 30.7428 117.229 31.6334 117.229 32.7525V36.8679C117.229 37.2967 117.254 37.9461 117.306 38.8156H115.069Z" stroke="#090909" stroke-width="1.39632" mask="url(#path-2-inside-1_2424_78)"/>
<path d="M119.056 36.3308V24.0991L121.428 23.9072V35.9087C121.428 36.3501 121.503 36.6617 121.654 36.8441C121.805 37.0261 122.044 37.1177 122.373 37.1177C122.52 37.1177 122.729 37.0826 122.999 37.0121L123.279 38.7101C123.054 38.7997 122.779 38.8717 122.455 38.9259C122.13 38.9801 121.823 39.0073 121.534 39.0073C119.881 39.0073 119.056 38.1153 119.056 36.3308Z" stroke="#090909" stroke-width="1.39632" mask="url(#path-2-inside-1_2424_78)"/>
<path d="M124.986 36.3308V24.0991L127.357 23.9072V35.9087C127.357 36.3501 127.433 36.6617 127.584 36.8441C127.735 37.0261 127.975 37.1177 128.302 37.1177C128.45 37.1177 128.659 37.0826 128.929 37.0121L129.209 38.7101C128.984 38.7997 128.709 38.8717 128.385 38.9259C128.06 38.9801 127.753 39.0073 127.463 39.0073C125.811 39.0073 124.986 38.1153 124.986 36.3308Z" stroke="#090909" stroke-width="1.39632" mask="url(#path-2-inside-1_2424_78)"/>
<path d="M136.641 32.436C136.594 31.6109 136.386 30.9922 136.014 30.5794C135.641 30.1672 135.141 29.9607 134.52 29.9607C133.915 29.9607 133.412 30.1688 133.01 30.5843C132.609 31.0003 132.345 31.6174 132.224 32.436H136.641ZM138.963 33.9421H132.157C132.265 36.1103 133.303 37.1944 135.272 37.1944C135.759 37.1944 136.259 37.1352 136.772 37.017C137.282 36.8984 137.772 36.7403 138.24 36.5419L138.763 38.1631C137.597 38.7262 136.291 39.0073 134.839 39.0073C133.73 39.0073 132.8 38.7997 132.042 38.3839C131.281 37.9683 130.711 37.3703 130.329 36.5898C129.947 35.8099 129.756 34.8696 129.756 33.7694C129.756 32.6247 129.958 31.6396 130.364 30.8146C130.768 29.9895 131.332 29.3597 132.055 28.9247C132.778 28.4898 133.612 28.2722 134.558 28.2722C135.543 28.2722 136.361 28.501 137.02 28.9584C137.68 29.4154 138.167 30.0248 138.485 30.7857C138.804 31.5472 138.963 32.3879 138.963 33.3089V33.9421Z" stroke="#090909" stroke-width="1.39632" mask="url(#path-2-inside-1_2424_78)"/>
<path d="M140.766 31.064C140.766 30.495 140.737 29.6285 140.686 28.4642H142.916C142.954 28.752 142.989 29.0958 143.027 29.4956C143.062 29.8952 143.085 30.2198 143.097 30.4692C143.374 30.0152 143.645 29.633 143.913 29.3229C144.18 29.0125 144.492 28.7601 144.849 28.5647C145.206 28.3698 145.61 28.2722 146.069 28.2722C146.435 28.2722 146.747 28.3107 147.012 28.3875L146.712 30.4405C146.483 30.3702 146.225 30.3349 145.941 30.3349C145.384 30.3349 144.894 30.4773 144.476 30.762C144.059 31.0463 143.613 31.5148 143.135 32.1672V38.8156H140.766V31.064Z" stroke="#090909" stroke-width="1.39632" mask="url(#path-2-inside-1_2424_78)"/>
<path d="M148.349 43.051C148.002 42.9905 147.715 42.9216 147.493 42.845L147.926 41.1182C148.085 41.1626 148.289 41.2059 148.534 41.2475C148.776 41.2894 149.009 41.3099 149.228 41.3099C150.283 41.3099 151.072 40.6349 151.598 39.2856L151.754 38.9019L147.916 28.4642H150.471L152.401 34.297C152.713 35.2949 152.917 36.0592 153.006 36.5898C153.187 35.8416 153.397 35.0933 153.643 34.345L155.602 28.4642H158L154.175 38.95C153.815 39.9412 153.423 40.7405 153.006 41.3483C152.589 41.9557 152.095 42.4067 151.528 42.701C150.958 42.9949 150.273 43.1422 149.467 43.1422C149.069 43.1422 148.696 43.1121 148.349 43.051Z" stroke="#090909" stroke-width="1.39632" mask="url(#path-2-inside-1_2424_78)"/>
<mask id="path-3-inside-2_2424_78" fill="white">
<path d="M58.7773 12.0925H62.7142L62.6034 13.0436H59.9311V14.8855H62.451V15.7766H59.9311V17.8171H62.7464L62.6495 18.7773H58.7773V12.0925Z"/>
<path d="M65.4279 15.3656L63.351 12.0925H64.6616L66.0694 14.4979L67.5511 12.0925H68.8247L66.7662 15.324L68.9955 18.7773H67.6663L66.0741 16.1459L64.454 18.7773H63.1803L65.4279 15.3656Z"/>
<path d="M72.7386 15.077C72.9846 14.8542 73.1078 14.5392 73.1078 14.133C73.1078 13.7205 72.9822 13.4238 72.7318 13.2421C72.481 13.0604 72.1123 12.9697 71.6264 12.9697H70.9987V15.3426C71.2879 15.3887 71.5095 15.4117 71.6634 15.4117C72.1339 15.4117 72.4925 15.3003 72.7386 15.077ZM69.8447 12.0925H71.6448C72.4907 12.0925 73.1385 12.265 73.5878 12.6095C74.0371 12.9544 74.2615 13.4528 74.2615 14.1052C74.2615 14.5484 74.1608 14.9357 73.9594 15.2664C73.7576 15.5973 73.477 15.8514 73.1169 16.0281C72.7572 16.2053 72.343 16.2937 71.8754 16.2937C71.6202 16.2937 71.3278 16.263 70.9987 16.2012V18.7773H69.8447V12.0925Z"/>
<path d="M75.4017 12.0925H76.5555V17.7893H79.32L79.2231 18.7773H75.4017V12.0925Z"/>
<path d="M84.0647 17.6301C84.3878 17.4132 84.6291 17.1148 84.7892 16.7345C84.9493 16.3545 85.0294 15.9196 85.0294 15.4303C85.0294 14.9502 84.9585 14.5227 84.817 14.1468C84.6752 13.7713 84.4493 13.4723 84.1385 13.2489C83.8278 13.0258 83.4278 12.9142 82.9384 12.9142C82.4708 12.9142 82.0738 13.0273 81.7477 13.2536C81.4216 13.4797 81.177 13.7831 81.014 14.1631C80.8509 14.5433 80.7694 14.9626 80.7694 15.4212C80.7694 15.9042 80.8462 16.3368 81.0001 16.7183C81.1537 17.1 81.3891 17.4017 81.7063 17.6233C82.023 17.8449 82.4153 17.9557 82.8831 17.9557C83.3478 17.9557 83.7415 17.8469 84.0647 17.6301ZM81.0739 18.4497C80.5848 18.1696 80.2108 17.7763 79.9524 17.2699C79.6939 16.7638 79.5648 16.1752 79.5648 15.5042C79.5648 14.7995 79.7022 14.1832 79.9778 13.6552C80.2531 13.1275 80.6501 12.7197 81.1685 12.4317C81.6868 12.1442 82.2983 12 83.0031 12C83.6768 12 84.2569 12.1395 84.7431 12.4178C85.2291 12.6967 85.6001 13.0882 85.8553 13.5928C86.1108 14.0978 86.2384 14.6825 86.2384 15.3473C86.2384 16.0644 86.0993 16.6878 85.8207 17.217C85.5422 17.7462 85.1455 18.1542 84.63 18.4402C84.1146 18.7265 83.5093 18.8696 82.814 18.8696C82.1432 18.8696 81.5631 18.7298 81.0739 18.4497Z"/>
<path d="M89.3355 15.2548C89.6152 15.2548 89.863 15.2005 90.0784 15.0908C90.2937 14.9818 90.4615 14.8279 90.5814 14.6293C90.7016 14.4308 90.7616 14.2006 90.7616 13.9391C90.7616 13.6038 90.6553 13.3583 90.4432 13.2028C90.2308 13.0474 89.9215 12.9697 89.5154 12.9697H88.68V15.2548H89.3355ZM87.5263 12.0925H89.617C90.3799 12.0925 90.9577 12.2449 91.35 12.5496C91.7423 12.8542 91.9384 13.29 91.9384 13.8561C91.9384 14.2101 91.8675 14.5218 91.726 14.791C91.5845 15.0604 91.4091 15.2797 91.2 15.4487C90.9905 15.618 90.7755 15.7441 90.5539 15.8274L92.6077 18.7773H91.2694L89.5293 16.1273H88.68V18.7773H87.5263V12.0925Z"/>
<path d="M93.5216 12.0925H97.4585L97.3477 13.0436H94.6754V14.8855H97.1953V15.7766H94.6754V17.8171H97.4907L97.3938 18.7773H93.5216V12.0925Z"/>
<path d="M101.742 12.0925H102.895V18.7773H101.742V12.0925Z"/>
<path d="M105.946 13.0575H103.874L103.975 12.0925H109.177L109.071 13.0575H107.1V18.7773H105.946V13.0575Z"/>
<path d="M117.175 17.6301C117.498 17.4132 117.74 17.1148 117.9 16.7345C118.06 16.3545 118.14 15.9196 118.14 15.4303C118.14 14.9502 118.069 14.5227 117.928 14.1468C117.786 13.7713 117.56 13.4723 117.249 13.2489C116.938 13.0258 116.538 12.9142 116.049 12.9142C115.581 12.9142 115.184 13.0273 114.858 13.2536C114.532 13.4797 114.287 13.7831 114.125 14.1631C113.961 14.5433 113.88 14.9626 113.88 15.4212C113.88 15.9042 113.956 16.3368 114.111 16.7183C114.264 17.1 114.5 17.4017 114.817 17.6233C115.134 17.8449 115.526 17.9557 115.994 17.9557C116.458 17.9557 116.852 17.8469 117.175 17.6301ZM114.184 18.4497C113.695 18.1696 113.321 17.7763 113.063 17.2699C112.804 16.7638 112.675 16.1752 112.675 15.5042C112.675 14.7995 112.813 14.1832 113.088 13.6552C113.363 13.1275 113.76 12.7197 114.279 12.4317C114.797 12.1442 115.409 12 116.114 12C116.787 12 117.367 12.1395 117.854 12.4178C118.34 12.6967 118.71 13.0882 118.966 13.5928C119.221 14.0978 119.349 14.6825 119.349 15.3473C119.349 16.0644 119.21 16.6878 118.931 17.217C118.653 17.7462 118.256 18.1542 117.741 18.4402C117.225 18.7265 116.62 18.8696 115.924 18.8696C115.253 18.8696 114.674 18.7298 114.184 18.4497Z"/>
<path d="M120.637 12.0925H121.961L125.266 17.2723C125.237 16.78 125.225 16.3259 125.225 15.9105V12.0925H126.294V18.7773H125.012L121.657 13.5143C121.69 14.1117 121.707 14.6409 121.707 15.1024V18.7773H120.637V12.0925Z"/>
</mask>
<path d="M58.7773 12.0925H62.7142L62.6034 13.0436H59.9311V14.8855H62.451V15.7766H59.9311V17.8171H62.7464L62.6495 18.7773H58.7773V12.0925Z" fill="#090909"/>
<path d="M65.4279 15.3656L63.351 12.0925H64.6616L66.0694 14.4979L67.5511 12.0925H68.8247L66.7662 15.324L68.9955 18.7773H67.6663L66.0741 16.1459L64.454 18.7773H63.1803L65.4279 15.3656Z" fill="#090909"/>
<path d="M72.7386 15.077C72.9846 14.8542 73.1078 14.5392 73.1078 14.133C73.1078 13.7205 72.9822 13.4238 72.7318 13.2421C72.481 13.0604 72.1123 12.9697 71.6264 12.9697H70.9987V15.3426C71.2879 15.3887 71.5095 15.4117 71.6634 15.4117C72.1339 15.4117 72.4925 15.3003 72.7386 15.077ZM69.8447 12.0925H71.6448C72.4907 12.0925 73.1385 12.265 73.5878 12.6095C74.0371 12.9544 74.2615 13.4528 74.2615 14.1052C74.2615 14.5484 74.1608 14.9357 73.9594 15.2664C73.7576 15.5973 73.477 15.8514 73.1169 16.0281C72.7572 16.2053 72.343 16.2937 71.8754 16.2937C71.6202 16.2937 71.3278 16.263 70.9987 16.2012V18.7773H69.8447V12.0925Z" fill="#090909"/>
<path d="M75.4017 12.0925H76.5555V17.7893H79.32L79.2231 18.7773H75.4017V12.0925Z" fill="#090909"/>
<path d="M84.0647 17.6301C84.3878 17.4132 84.6291 17.1148 84.7892 16.7345C84.9493 16.3545 85.0294 15.9196 85.0294 15.4303C85.0294 14.9502 84.9585 14.5227 84.817 14.1468C84.6752 13.7713 84.4493 13.4723 84.1385 13.2489C83.8278 13.0258 83.4278 12.9142 82.9384 12.9142C82.4708 12.9142 82.0738 13.0273 81.7477 13.2536C81.4216 13.4797 81.177 13.7831 81.014 14.1631C80.8509 14.5433 80.7694 14.9626 80.7694 15.4212C80.7694 15.9042 80.8462 16.3368 81.0001 16.7183C81.1537 17.1 81.3891 17.4017 81.7063 17.6233C82.023 17.8449 82.4153 17.9557 82.8831 17.9557C83.3478 17.9557 83.7415 17.8469 84.0647 17.6301ZM81.0739 18.4497C80.5848 18.1696 80.2108 17.7763 79.9524 17.2699C79.6939 16.7638 79.5648 16.1752 79.5648 15.5042C79.5648 14.7995 79.7022 14.1832 79.9778 13.6552C80.2531 13.1275 80.6501 12.7197 81.1685 12.4317C81.6868 12.1442 82.2983 12 83.0031 12C83.6768 12 84.2569 12.1395 84.7431 12.4178C85.2291 12.6967 85.6001 13.0882 85.8553 13.5928C86.1108 14.0978 86.2384 14.6825 86.2384 15.3473C86.2384 16.0644 86.0993 16.6878 85.8207 17.217C85.5422 17.7462 85.1455 18.1542 84.63 18.4402C84.1146 18.7265 83.5093 18.8696 82.814 18.8696C82.1432 18.8696 81.5631 18.7298 81.0739 18.4497Z" fill="#090909"/>
<path d="M89.3355 15.2548C89.6152 15.2548 89.863 15.2005 90.0784 15.0908C90.2937 14.9818 90.4615 14.8279 90.5814 14.6293C90.7016 14.4308 90.7616 14.2006 90.7616 13.9391C90.7616 13.6038 90.6553 13.3583 90.4432 13.2028C90.2308 13.0474 89.9215 12.9697 89.5154 12.9697H88.68V15.2548H89.3355ZM87.5263 12.0925H89.617C90.3799 12.0925 90.9577 12.2449 91.35 12.5496C91.7423 12.8542 91.9384 13.29 91.9384 13.8561C91.9384 14.2101 91.8675 14.5218 91.726 14.791C91.5845 15.0604 91.4091 15.2797 91.2 15.4487C90.9905 15.618 90.7755 15.7441 90.5539 15.8274L92.6077 18.7773H91.2694L89.5293 16.1273H88.68V18.7773H87.5263V12.0925Z" fill="#090909"/>
<path d="M93.5216 12.0925H97.4585L97.3477 13.0436H94.6754V14.8855H97.1953V15.7766H94.6754V17.8171H97.4907L97.3938 18.7773H93.5216V12.0925Z" fill="#090909"/>
<path d="M101.742 12.0925H102.895V18.7773H101.742V12.0925Z" fill="#090909"/>
<path d="M105.946 13.0575H103.874L103.975 12.0925H109.177L109.071 13.0575H107.1V18.7773H105.946V13.0575Z" fill="#090909"/>
<path d="M117.175 17.6301C117.498 17.4132 117.74 17.1148 117.9 16.7345C118.06 16.3545 118.14 15.9196 118.14 15.4303C118.14 14.9502 118.069 14.5227 117.928 14.1468C117.786 13.7713 117.56 13.4723 117.249 13.2489C116.938 13.0258 116.538 12.9142 116.049 12.9142C115.581 12.9142 115.184 13.0273 114.858 13.2536C114.532 13.4797 114.287 13.7831 114.125 14.1631C113.961 14.5433 113.88 14.9626 113.88 15.4212C113.88 15.9042 113.956 16.3368 114.111 16.7183C114.264 17.1 114.5 17.4017 114.817 17.6233C115.134 17.8449 115.526 17.9557 115.994 17.9557C116.458 17.9557 116.852 17.8469 117.175 17.6301ZM114.184 18.4497C113.695 18.1696 113.321 17.7763 113.063 17.2699C112.804 16.7638 112.675 16.1752 112.675 15.5042C112.675 14.7995 112.813 14.1832 113.088 13.6552C113.363 13.1275 113.76 12.7197 114.279 12.4317C114.797 12.1442 115.409 12 116.114 12C116.787 12 117.367 12.1395 117.854 12.4178C118.34 12.6967 118.71 13.0882 118.966 13.5928C119.221 14.0978 119.349 14.6825 119.349 15.3473C119.349 16.0644 119.21 16.6878 118.931 17.217C118.653 17.7462 118.256 18.1542 117.741 18.4402C117.225 18.7265 116.62 18.8696 115.924 18.8696C115.253 18.8696 114.674 18.7298 114.184 18.4497Z" fill="#090909"/>
<path d="M120.637 12.0925H121.961L125.266 17.2723C125.237 16.78 125.225 16.3259 125.225 15.9105V12.0925H126.294V18.7773H125.012L121.657 13.5143C121.69 14.1117 121.707 14.6409 121.707 15.1024V18.7773H120.637V12.0925Z" fill="#090909"/>
<path d="M58.7773 12.0925H62.7142L62.6034 13.0436H59.9311V14.8855H62.451V15.7766H59.9311V17.8171H62.7464L62.6495 18.7773H58.7773V12.0925Z" stroke="#090909" stroke-width="1.29498" mask="url(#path-3-inside-2_2424_78)"/>
<path d="M65.4279 15.3656L63.351 12.0925H64.6616L66.0694 14.4979L67.5511 12.0925H68.8247L66.7662 15.324L68.9955 18.7773H67.6663L66.0741 16.1459L64.454 18.7773H63.1803L65.4279 15.3656Z" stroke="#090909" stroke-width="1.29498" mask="url(#path-3-inside-2_2424_78)"/>
<path d="M72.7386 15.077C72.9846 14.8542 73.1078 14.5392 73.1078 14.133C73.1078 13.7205 72.9822 13.4238 72.7318 13.2421C72.481 13.0604 72.1123 12.9697 71.6264 12.9697H70.9987V15.3426C71.2879 15.3887 71.5095 15.4117 71.6634 15.4117C72.1339 15.4117 72.4925 15.3003 72.7386 15.077ZM69.8447 12.0925H71.6448C72.4907 12.0925 73.1385 12.265 73.5878 12.6095C74.0371 12.9544 74.2615 13.4528 74.2615 14.1052C74.2615 14.5484 74.1608 14.9357 73.9594 15.2664C73.7576 15.5973 73.477 15.8514 73.1169 16.0281C72.7572 16.2053 72.343 16.2937 71.8754 16.2937C71.6202 16.2937 71.3278 16.263 70.9987 16.2012V18.7773H69.8447V12.0925Z" stroke="#090909" stroke-width="1.29498" mask="url(#path-3-inside-2_2424_78)"/>
<path d="M75.4017 12.0925H76.5555V17.7893H79.32L79.2231 18.7773H75.4017V12.0925Z" stroke="#090909" stroke-width="1.29498" mask="url(#path-3-inside-2_2424_78)"/>
<path d="M84.0647 17.6301C84.3878 17.4132 84.6291 17.1148 84.7892 16.7345C84.9493 16.3545 85.0294 15.9196 85.0294 15.4303C85.0294 14.9502 84.9585 14.5227 84.817 14.1468C84.6752 13.7713 84.4493 13.4723 84.1385 13.2489C83.8278 13.0258 83.4278 12.9142 82.9384 12.9142C82.4708 12.9142 82.0738 13.0273 81.7477 13.2536C81.4216 13.4797 81.177 13.7831 81.014 14.1631C80.8509 14.5433 80.7694 14.9626 80.7694 15.4212C80.7694 15.9042 80.8462 16.3368 81.0001 16.7183C81.1537 17.1 81.3891 17.4017 81.7063 17.6233C82.023 17.8449 82.4153 17.9557 82.8831 17.9557C83.3478 17.9557 83.7415 17.8469 84.0647 17.6301ZM81.0739 18.4497C80.5848 18.1696 80.2108 17.7763 79.9524 17.2699C79.6939 16.7638 79.5648 16.1752 79.5648 15.5042C79.5648 14.7995 79.7022 14.1832 79.9778 13.6552C80.2531 13.1275 80.6501 12.7197 81.1685 12.4317C81.6868 12.1442 82.2983 12 83.0031 12C83.6768 12 84.2569 12.1395 84.7431 12.4178C85.2291 12.6967 85.6001 13.0882 85.8553 13.5928C86.1108 14.0978 86.2384 14.6825 86.2384 15.3473C86.2384 16.0644 86.0993 16.6878 85.8207 17.217C85.5422 17.7462 85.1455 18.1542 84.63 18.4402C84.1146 18.7265 83.5093 18.8696 82.814 18.8696C82.1432 18.8696 81.5631 18.7298 81.0739 18.4497Z" stroke="#090909" stroke-width="1.29498" mask="url(#path-3-inside-2_2424_78)"/>
<path d="M89.3355 15.2548C89.6152 15.2548 89.863 15.2005 90.0784 15.0908C90.2937 14.9818 90.4615 14.8279 90.5814 14.6293C90.7016 14.4308 90.7616 14.2006 90.7616 13.9391C90.7616 13.6038 90.6553 13.3583 90.4432 13.2028C90.2308 13.0474 89.9215 12.9697 89.5154 12.9697H88.68V15.2548H89.3355ZM87.5263 12.0925H89.617C90.3799 12.0925 90.9577 12.2449 91.35 12.5496C91.7423 12.8542 91.9384 13.29 91.9384 13.8561C91.9384 14.2101 91.8675 14.5218 91.726 14.791C91.5845 15.0604 91.4091 15.2797 91.2 15.4487C90.9905 15.618 90.7755 15.7441 90.5539 15.8274L92.6077 18.7773H91.2694L89.5293 16.1273H88.68V18.7773H87.5263V12.0925Z" stroke="#090909" stroke-width="1.29498" mask="url(#path-3-inside-2_2424_78)"/>
<path d="M93.5216 12.0925H97.4585L97.3477 13.0436H94.6754V14.8855H97.1953V15.7766H94.6754V17.8171H97.4907L97.3938 18.7773H93.5216V12.0925Z" stroke="#090909" stroke-width="1.29498" mask="url(#path-3-inside-2_2424_78)"/>
<path d="M101.742 12.0925H102.895V18.7773H101.742V12.0925Z" stroke="#090909" stroke-width="1.29498" mask="url(#path-3-inside-2_2424_78)"/>
<path d="M105.946 13.0575H103.874L103.975 12.0925H109.177L109.071 13.0575H107.1V18.7773H105.946V13.0575Z" stroke="#090909" stroke-width="1.29498" mask="url(#path-3-inside-2_2424_78)"/>
<path d="M117.175 17.6301C117.498 17.4132 117.74 17.1148 117.9 16.7345C118.06 16.3545 118.14 15.9196 118.14 15.4303C118.14 14.9502 118.069 14.5227 117.928 14.1468C117.786 13.7713 117.56 13.4723 117.249 13.2489C116.938 13.0258 116.538 12.9142 116.049 12.9142C115.581 12.9142 115.184 13.0273 114.858 13.2536C114.532 13.4797 114.287 13.7831 114.125 14.1631C113.961 14.5433 113.88 14.9626 113.88 15.4212C113.88 15.9042 113.956 16.3368 114.111 16.7183C114.264 17.1 114.5 17.4017 114.817 17.6233C115.134 17.8449 115.526 17.9557 115.994 17.9557C116.458 17.9557 116.852 17.8469 117.175 17.6301ZM114.184 18.4497C113.695 18.1696 113.321 17.7763 113.063 17.2699C112.804 16.7638 112.675 16.1752 112.675 15.5042C112.675 14.7995 112.813 14.1832 113.088 13.6552C113.363 13.1275 113.76 12.7197 114.279 12.4317C114.797 12.1442 115.409 12 116.114 12C116.787 12 117.367 12.1395 117.854 12.4178C118.34 12.6967 118.71 13.0882 118.966 13.5928C119.221 14.0978 119.349 14.6825 119.349 15.3473C119.349 16.0644 119.21 16.6878 118.931 17.217C118.653 17.7462 118.256 18.1542 117.741 18.4402C117.225 18.7265 116.62 18.8696 115.924 18.8696C115.253 18.8696 114.674 18.7298 114.184 18.4497Z" stroke="#090909" stroke-width="1.29498" mask="url(#path-3-inside-2_2424_78)"/>
<path d="M120.637 12.0925H121.961L125.266 17.2723C125.237 16.78 125.225 16.3259 125.225 15.9105V12.0925H126.294V18.7773H125.012L121.657 13.5143C121.69 14.1117 121.707 14.6409 121.707 15.1024V18.7773H120.637V12.0925Z" stroke="#090909" stroke-width="1.29498" mask="url(#path-3-inside-2_2424_78)"/>
<path fill-rule="evenodd" clip-rule="evenodd" d="M42.7853 12.1149H28.9203C22.3889 12.1149 20 14.4442 20 20.8124V34.3312C20 40.6991 22.3889 43.0283 28.9203 43.0283H42.781C49.3123 43.0283 51.7056 40.6991 51.7056 34.3312V20.8124C51.7056 14.4442 49.3166 12.1149 42.7853 12.1149" fill="#C91C2E"/>
<path d="M34.1058 29.6877H35.3411L34.7215 28.2412L34.1058 29.6877ZM33.8017 30.4169L33.4353 31.2586H32.6011L34.3753 27.2181H35.096L36.863 31.2586H36.0065L35.6446 30.4169H33.8017ZM47.2256 31.2558H48.0319V27.2181H47.2256V31.2558ZM44.0167 29.5208H45.5026V28.785H44.0167V27.9573H46.1738V27.2206H43.2107V31.2582H46.2516V30.5218H44.0167V29.5208ZM40.8131 29.9979L39.8988 27.2179H39.2322L38.3178 29.9979L37.4282 27.2199H36.5586L37.9622 31.2605H38.6385L39.5541 28.6063L40.4694 31.2605H41.1519L42.5519 27.2199H41.7047L40.8131 29.9979ZM31.3704 29.532C31.3704 30.1893 31.0452 30.5405 30.4548 30.5405C29.8611 30.5405 29.5343 30.1794 29.5343 29.504V27.2203H28.7172V29.532C28.7172 30.6693 29.3465 31.3213 30.4437 31.3213C31.5516 31.3213 32.1871 30.6568 32.1871 29.4985V27.2179H31.3704V29.532ZM26.7677 27.2181H27.5844V31.2607H26.7677V29.6191H24.9225V31.2607H24.1055V27.2181H24.9225V28.8489H26.7677V27.2181Z" fill="white"/>
<path d="M36.0693 22.0703C33.2424 22.0703 30.9424 19.7613 30.9424 16.9233H31.6667C31.6667 19.3604 33.6415 21.3432 36.0693 21.3432C38.4971 21.3432 40.472 19.3604 40.472 16.9233H41.1963C41.1963 19.7613 38.8963 22.0703 36.0693 22.0703" fill="white"/>
</svg>
