<svg width="173" height="55" viewBox="0 0 173 55" fill="none" xmlns="http://www.w3.org/2000/svg">
<rect x="1.5" y="1.5" width="170" height="52" rx="26" fill="white" stroke="#090909" stroke-width="3"/>
<path d="M41.2784 29.0008C41.3113 26.2123 42.685 23.5738 44.8641 22.1133C43.4894 19.9729 41.1868 18.6158 38.7911 18.5341C36.236 18.2417 33.7589 20.2009 32.4569 20.2009C31.1296 20.2009 29.1249 18.5631 26.9661 18.6115C24.1523 18.7106 21.5291 20.4547 20.1601 23.1366C17.2173 28.691 19.4124 36.8542 22.2313 41.344C23.6417 43.5425 25.29 45.9983 27.4468 45.9112C29.5574 45.8158 30.3456 44.444 32.8933 44.444C35.4172 44.444 36.1568 45.9112 38.3573 45.8559C40.6221 45.8158 42.049 43.6476 43.4099 41.4282C44.4232 39.8617 45.203 38.1303 45.7203 36.2983C43.0588 35.0711 41.2815 32.1512 41.2784 29.0008Z" fill="#090909"/>
<path d="M37.1218 15.5813C38.3567 13.9653 38.965 11.8882 38.8177 9.79102C36.9312 10.007 35.1885 10.99 33.937 12.544C32.7132 14.0624 32.0764 16.103 32.1968 18.12C34.084 18.1412 35.9393 17.1849 37.1218 15.5813Z" fill="#090909"/>
<path d="M116.557 26.1207V29.4997H114.614V31.7157H116.557V39.2451C116.557 41.8161 117.624 42.8445 120.308 42.8445C120.779 42.8445 121.229 42.7833 121.622 42.7098V40.5183C121.285 40.5551 121.071 40.5795 120.701 40.5795C119.499 40.5795 118.971 39.9674 118.971 38.5717V31.7157H121.622V29.4997H118.971V26.1207H116.557Z" fill="#090909"/>
<path d="M128.459 43.0281C132.03 43.0281 134.22 40.4204 134.22 36.0986C134.22 31.8014 132.019 29.1814 128.459 29.1814C124.888 29.1814 122.687 31.8014 122.687 36.0986C122.687 40.4204 124.877 43.0281 128.459 43.0281ZM128.459 40.6897C126.359 40.6897 125.18 39.0124 125.18 36.0986C125.18 33.2093 126.359 31.5198 128.459 31.5198C130.548 31.5198 131.738 33.2093 131.738 36.0986C131.738 39.0002 130.548 40.6897 128.459 40.6897Z" fill="#090909"/>
<path d="M136.094 42.771H138.508V34.8988C138.508 33.0257 139.8 31.7647 141.63 31.7647C142.057 31.7647 142.776 31.8504 142.978 31.9238V29.3283C142.719 29.2549 142.259 29.2182 141.9 29.2182C140.305 29.2182 138.946 30.1731 138.598 31.4831H138.418V29.4385H136.094V42.771Z" fill="#090909"/>
<path d="M148.973 31.4219C150.758 31.4219 151.926 32.7808 151.982 34.8744H145.806C145.941 32.7931 147.187 31.4219 148.973 31.4219ZM151.971 39.1716C151.522 40.2122 150.523 40.7877 149.063 40.7877C147.131 40.7877 145.885 39.3063 145.806 36.9679V36.821H154.442V35.9028C154.442 31.7157 152.387 29.1814 148.984 29.1814C145.536 29.1814 143.347 31.8871 143.347 36.1476C143.347 40.4081 145.491 43.0281 148.995 43.0281C151.792 43.0281 153.746 41.559 154.296 39.1716H151.971Z" fill="#090909"/>
<path d="M100.723 37.8475C100.909 41.1214 103.412 43.2151 107.137 43.2151C111.117 43.2151 113.608 41.0199 113.608 37.5176C113.608 34.764 112.188 33.2413 108.743 32.3657L106.892 31.8708C104.704 31.3125 103.819 30.5638 103.819 29.2568C103.819 27.6072 105.193 26.5286 107.253 26.5286C109.208 26.5286 110.559 27.5818 110.803 29.2695H113.34C113.189 26.186 110.698 24.0161 107.288 24.0161C103.621 24.0161 101.177 26.186 101.177 29.4472C101.177 32.1373 102.562 33.7362 105.6 34.5102L107.765 35.0812C109.988 35.6523 110.966 36.4898 110.966 37.8856C110.966 39.5098 109.43 40.69 107.334 40.69C105.088 40.69 103.528 39.586 103.307 37.8475H100.723Z" fill="#090909"/>
<path d="M75.7116 29.2182C74.0495 29.2182 72.6121 30.1241 71.8709 31.6422H71.6912V29.4385H69.3666V47.2029H71.781V40.7509H71.9719C72.6121 42.1589 73.9934 42.9914 75.734 42.9914C78.8223 42.9914 80.7876 40.3347 80.7876 36.0986C80.7876 31.8626 78.8223 29.2182 75.7116 29.2182ZM75.0265 40.6285C73.0051 40.6285 71.7361 38.89 71.7361 36.1109C71.7361 33.3195 73.0051 31.581 75.0378 31.581C77.0816 31.581 78.3057 33.2828 78.3057 36.0986C78.3057 38.9267 77.0816 40.6285 75.0265 40.6285Z" fill="#090909"/>
<path d="M89.2362 29.2182C87.5742 29.2182 86.1367 30.1241 85.3955 31.6422H85.2158V29.4385H82.8912V47.2029H85.3057V40.7509H85.4966C86.1367 42.1589 87.518 42.9914 89.2587 42.9914C92.347 42.9914 94.3122 40.3347 94.3122 36.0986C94.3122 31.8626 92.347 29.2182 89.2362 29.2182ZM88.5512 40.6285C86.5298 40.6285 85.2608 38.89 85.2608 36.1109C85.2608 33.3195 86.5298 31.581 88.5624 31.581C90.6063 31.581 91.8304 33.2828 91.8304 36.0986C91.8304 38.9267 90.6063 40.6285 88.5512 40.6285Z" fill="#090909"/>
<path d="M65.0346 42.771H67.8048L61.7405 24.4602H58.9354L52.8711 42.771H55.5482L57.0963 37.911H63.4981L65.0346 42.771ZM60.2041 27.7849H60.402L62.8347 35.5254H57.7598L60.2041 27.7849Z" fill="#090909"/>
<path d="M52.8037 11.5446V18.7824H55.2008C57.1791 18.7824 58.3248 17.4532 58.3248 15.1409C58.3248 12.8637 57.1699 11.5446 55.2008 11.5446H52.8037ZM53.8343 12.5678H55.0857C56.4614 12.5678 57.2758 13.5208 57.2758 15.156C57.2758 16.8162 56.4752 17.7592 55.0857 17.7592H53.8343V12.5678Z" fill="#090909"/>
<path d="M61.8334 18.8877C63.2965 18.8877 64.1936 17.8193 64.1936 16.0488C64.1936 14.2882 63.2919 13.2149 61.8334 13.2149C60.3703 13.2149 59.4685 14.2882 59.4685 16.0488C59.4685 17.8193 60.3657 18.8877 61.8334 18.8877ZM61.8334 17.9297C60.973 17.9297 60.4899 17.2425 60.4899 16.0488C60.4899 14.865 60.973 14.1729 61.8334 14.1729C62.6891 14.1729 63.1768 14.865 63.1768 16.0488C63.1768 17.2375 62.6891 17.9297 61.8334 17.9297Z" fill="#090909"/>
<path d="M71.8338 13.3202H70.8446L69.9521 17.4883H69.8739L68.8433 13.3202H67.8955L66.8649 17.4883H66.7913L65.8941 13.3202H64.8911L66.2714 18.7824H67.2882L68.3188 14.7597H68.397L69.4322 18.7824H70.4582L71.8338 13.3202Z" fill="#090909"/>
<path d="M72.973 18.7824H73.9622V15.5873C73.9622 14.7346 74.4269 14.203 75.1584 14.203C75.89 14.203 76.2396 14.6393 76.2396 15.5171V18.7824H77.2288V15.2462C77.2288 13.9472 76.6123 13.2149 75.4943 13.2149C74.7397 13.2149 74.2428 13.581 73.999 14.1879H73.9254V13.3202H72.973V18.7824Z" fill="#090909"/>
<path d="M78.7867 18.7824H79.7758V11.1885H78.7867V18.7824Z" fill="#090909"/>
<path d="M83.4961 18.8877C84.9592 18.8877 85.8564 17.8193 85.8564 16.0488C85.8564 14.2882 84.9546 13.2149 83.4961 13.2149C82.033 13.2149 81.1313 14.2882 81.1313 16.0488C81.1313 17.8193 82.0284 18.8877 83.4961 18.8877ZM83.4961 17.9297C82.6357 17.9297 82.1527 17.2425 82.1527 16.0488C82.1527 14.865 82.6357 14.1729 83.4961 14.1729C84.3519 14.1729 84.8396 14.865 84.8396 16.0488C84.8396 17.2375 84.3519 17.9297 83.4961 17.9297Z" fill="#090909"/>
<path d="M88.8037 17.9648C88.2654 17.9648 87.8743 17.6789 87.8743 17.1874C87.8743 16.7058 88.1872 16.45 88.8773 16.3999L90.1011 16.3146V16.771C90.1011 17.4482 89.549 17.9648 88.8037 17.9648ZM88.5506 18.8727C89.2085 18.8727 89.756 18.5617 90.0551 18.015H90.1333V18.7824H91.0857V15.0506C91.0857 13.897 90.3772 13.2149 89.1211 13.2149C87.9847 13.2149 87.175 13.8167 87.0737 14.7547H88.0307C88.1411 14.3685 88.523 14.1478 89.0751 14.1478C89.7514 14.1478 90.1011 14.4738 90.1011 15.0506V15.5221L88.7439 15.6074C87.5522 15.6876 86.8805 16.2544 86.8805 17.2375C86.8805 18.2357 87.5844 18.8727 88.5506 18.8727Z" fill="#090909"/>
<path d="M94.4425 18.8727C95.1326 18.8727 95.7169 18.5165 96.016 17.9197H96.0942V18.7824H97.042V11.1885H96.0528V14.1879H95.9792C95.7077 13.586 95.128 13.2299 94.4425 13.2299C93.1773 13.2299 92.3629 14.3233 92.3629 16.0488C92.3629 17.7792 93.1681 18.8727 94.4425 18.8727ZM94.7231 14.1979C95.5513 14.1979 96.0712 14.9152 96.0712 16.0538C96.0712 17.1974 95.5559 17.9046 94.7231 17.9046C93.8858 17.9046 93.3843 17.2074 93.3843 16.0488C93.3843 14.9002 93.8904 14.1979 94.7231 14.1979Z" fill="#090909"/>
<path d="M103.457 18.8877C104.92 18.8877 105.817 17.8193 105.817 16.0488C105.817 14.2882 104.915 13.2149 103.457 13.2149C101.993 13.2149 101.092 14.2882 101.092 16.0488C101.092 17.8193 101.989 18.8877 103.457 18.8877ZM103.457 17.9297C102.596 17.9297 102.113 17.2425 102.113 16.0488C102.113 14.865 102.596 14.1729 103.457 14.1729C104.312 14.1729 104.8 14.865 104.8 16.0488C104.8 17.2375 104.312 17.9297 103.457 17.9297Z" fill="#090909"/>
<path d="M107.126 18.7824H108.115V15.5873C108.115 14.7346 108.58 14.203 109.312 14.203C110.043 14.203 110.393 14.6393 110.393 15.5171V18.7824H111.382V15.2462C111.382 13.9472 110.765 13.2149 109.647 13.2149C108.893 13.2149 108.396 13.581 108.152 14.1879H108.079V13.3202H107.126V18.7824Z" fill="#090909"/>
<path d="M115.938 11.9609V13.3453H115.142V14.2531H115.938V17.3378C115.938 18.3911 116.375 18.8125 117.474 18.8125C117.668 18.8125 117.852 18.7874 118.013 18.7573V17.8595C117.875 17.8745 117.787 17.8845 117.635 17.8845C117.143 17.8845 116.927 17.6338 116.927 17.062V14.2531H118.013V13.3453H116.927V11.9609H115.938Z" fill="#090909"/>
<path d="M119.341 18.7824H120.33V15.5923C120.33 14.7647 120.781 14.208 121.59 14.208C122.29 14.208 122.662 14.6494 122.662 15.5221V18.7824H123.652V15.2563C123.652 13.9572 122.994 13.2199 121.926 13.2199C121.172 13.2199 120.643 13.586 120.399 14.1979H120.321V11.1885H119.341V18.7824Z" fill="#090909"/>
<path d="M127.22 14.1327C127.952 14.1327 128.43 14.6895 128.453 15.5472H125.923C125.978 14.6945 126.488 14.1327 127.22 14.1327ZM128.448 17.3077C128.264 17.7341 127.855 17.9698 127.257 17.9698C126.465 17.9698 125.955 17.3629 125.923 16.4049V16.3447H129.461V15.9685C129.461 14.2531 128.619 13.2149 127.225 13.2149C125.812 13.2149 124.915 14.3233 124.915 16.0688C124.915 17.8143 125.794 18.8877 127.229 18.8877C128.375 18.8877 129.175 18.2858 129.401 17.3077H128.448Z" fill="#090909"/>
</svg>
