<svg width="113" height="36" viewBox="0 0 113 36" fill="none" xmlns="http://www.w3.org/2000/svg">
<path d="M112.373 29.8797C112.373 31.6194 110.935 33.0285 109.156 33.0285H3.85093C2.07248 33.0285 0.628906 31.6194 0.628906 29.8797V4.76887C0.628906 3.03003 2.07248 1.61594 3.85093 1.61594H109.155C110.935 1.61594 112.373 3.03003 112.373 4.76887L112.373 29.8797Z" fill="black"/>
<path d="M108.815 1.65387C110.753 1.65387 112.329 3.19122 112.329 5.08052V29.5639C112.329 31.4532 110.753 32.9905 108.815 32.9905H4.18518C2.24744 32.9905 0.670676 31.4532 0.670676 29.5639V5.08052C0.670676 3.19122 2.24744 1.65387 4.18518 1.65387H108.815ZM108.815 0.999966H4.18518C1.88438 0.999966 0 2.83724 0 5.08052V29.5639C0 31.8071 1.88438 33.6444 4.18518 33.6444H108.815C111.116 33.6444 113 31.8071 113 29.5639V5.08052C113 2.83724 111.116 0.999966 108.815 0.999966Z" fill="#A6A6A6"/>
<path d="M25.2199 17.1459C25.1957 14.5156 27.4289 13.2359 27.531 13.1763C26.2662 11.3785 24.3059 11.1328 23.617 11.1132C21.9706 10.9443 20.3735 12.0738 19.5348 12.0738C18.6793 12.0738 17.3878 11.1295 15.9958 11.1573C14.2045 11.1842 12.5288 12.1954 11.6097 13.7656C9.71299 16.9672 11.1276 21.6721 12.9448 24.2599C13.8538 25.5274 14.916 26.9425 16.3063 26.8927C17.6665 26.838 18.1746 26.0472 19.816 26.0472C21.4424 26.0472 21.9195 26.8927 23.3374 26.8609C24.7972 26.838 25.7163 25.5878 26.5935 24.3089C27.644 22.8562 28.0659 21.4256 28.0826 21.3521C28.0483 21.3407 25.2476 20.2985 25.2199 17.1459Z" fill="white"/>
<path d="M22.5414 9.41081C23.273 8.5188 23.7735 7.30524 23.6346 6.07373C22.5757 6.11943 21.2515 6.78783 20.489 7.66025C19.8144 8.42903 19.2117 9.6891 19.3674 10.8741C20.5568 10.9606 21.778 10.2889 22.5414 9.41081Z" fill="white"/>
<path d="M44.9041 26.7107H43.0032L41.9619 23.5205H38.3426L37.3507 26.7107H35.5L39.0859 15.8499H41.3007L44.9041 26.7107ZM41.648 22.1821L40.7064 19.3461C40.6068 19.0564 40.4201 18.3741 40.1447 17.3001H40.1112C40.0016 17.7621 39.825 18.4443 39.5822 19.3461L38.6573 22.1821H41.648V22.1821Z" fill="white"/>
<path d="M54.1237 22.6987C54.1237 24.0306 53.7546 25.0834 53.0163 25.8563C52.3551 26.5443 51.5339 26.8878 50.5538 26.8878C49.4958 26.8878 48.7357 26.5173 48.2728 25.7763H48.2394V29.9017H46.4548V21.4574C46.4548 20.6201 46.4322 19.7607 46.3887 18.8793H47.9581L48.0577 20.1206H48.0912C48.6863 19.1854 49.5895 18.7186 50.8015 18.7186C51.7491 18.7186 52.5401 19.0834 53.1729 19.8138C53.8073 20.545 54.1237 21.5064 54.1237 22.6987ZM52.3057 22.7624C52.3057 22.0001 52.1299 21.3717 51.7767 20.8772C51.3908 20.3614 50.8727 20.1035 50.2231 20.1035C49.7829 20.1035 49.3828 20.2471 49.0253 20.5303C48.6671 20.816 48.4327 21.1889 48.3231 21.6509C48.2678 21.8663 48.2402 22.0426 48.2402 22.1813V23.4871C48.2402 24.0567 48.4193 24.5374 48.7776 24.93C49.1358 25.3225 49.6012 25.5184 50.1738 25.5184C50.8459 25.5184 51.369 25.2654 51.7432 24.7611C52.1182 24.2559 52.3057 23.5899 52.3057 22.7624Z" fill="white"/>
<path d="M63.3631 22.6987C63.3631 24.0306 62.994 25.0834 62.2549 25.8563C61.5945 26.5443 60.7733 26.8878 59.7932 26.8878C58.7352 26.8878 57.9751 26.5173 57.5131 25.7763H57.4796V29.9017H55.695V21.4574C55.695 20.6201 55.6724 19.7607 55.6289 18.8793H57.1984L57.298 20.1206H57.3314C57.9257 19.1854 58.8289 18.7186 60.0418 18.7186C60.9885 18.7186 61.7795 19.0834 62.4139 19.8138C63.0459 20.545 63.3631 21.5064 63.3631 22.6987ZM61.5451 22.7624C61.5451 22.0001 61.3685 21.3717 61.0152 20.8772C60.6294 20.3614 60.1129 20.1035 59.4625 20.1035C59.0214 20.1035 58.6222 20.2471 58.2639 20.5303C57.9056 20.816 57.6721 21.1889 57.5625 21.6509C57.5081 21.8663 57.4796 22.0426 57.4796 22.1813V23.4871C57.4796 24.0567 57.6587 24.5374 58.0153 24.93C58.3735 25.3217 58.8389 25.5184 59.4132 25.5184C60.0853 25.5184 60.6084 25.2654 60.9826 24.7611C61.3576 24.2559 61.5451 23.5899 61.5451 22.7624Z" fill="white"/>
<path d="M73.6918 23.665C73.6918 24.5889 73.3629 25.3405 72.7025 25.9207C71.9767 26.5549 70.9664 26.8715 69.6682 26.8715C68.4696 26.8715 67.5086 26.6463 66.7812 26.195L67.1947 24.7447C67.9782 25.2067 68.8379 25.4384 69.7745 25.4384C70.4466 25.4384 70.9698 25.2899 71.3456 24.9945C71.7198 24.699 71.9064 24.3024 71.9064 23.8078C71.9064 23.3671 71.7524 22.9958 71.4435 22.6947C71.1364 22.3935 70.6233 22.1136 69.9067 21.8549C67.9565 21.1457 66.9821 20.1068 66.9821 18.7406C66.9821 17.8478 67.3237 17.1157 68.0075 16.5461C68.6889 15.9756 69.5979 15.6908 70.7346 15.6908C71.7482 15.6908 72.5903 15.863 73.2624 16.2066L72.8163 17.625C72.1885 17.292 71.4787 17.1255 70.6844 17.1255C70.0566 17.1255 69.5661 17.2765 69.2145 17.5768C68.9174 17.8453 68.7684 18.1726 68.7684 18.5602C68.7684 18.9895 68.9383 19.3445 69.2798 19.6236C69.577 19.8815 70.1168 20.1606 70.9003 20.4618C71.8587 20.838 72.5627 21.2779 73.0155 21.7823C73.4667 22.285 73.6918 22.9142 73.6918 23.665Z" fill="white"/>
<path d="M79.5928 20.1851H77.6258V23.9874C77.6258 24.9545 77.9723 25.4376 78.6671 25.4376C78.986 25.4376 79.2505 25.4107 79.4597 25.3568L79.5091 26.6781C79.1576 26.8062 78.6947 26.8707 78.1213 26.8707C77.4165 26.8707 76.8657 26.661 76.4682 26.2423C76.0722 25.8228 75.873 25.1193 75.873 24.131V20.1835H74.7012V18.8777H75.873V17.4438L77.6258 16.928V18.8777H79.5928V20.1851Z" fill="white"/>
<path d="M88.4669 22.7306C88.4669 23.9343 88.1137 24.9227 87.4089 25.6955C86.6698 26.4912 85.6888 26.8878 84.4659 26.8878C83.2873 26.8878 82.349 26.5067 81.6493 25.7445C80.9495 24.9822 80.5996 24.02 80.5996 22.8603C80.5996 21.6468 80.9595 20.6528 81.6819 19.8799C82.4026 19.1062 83.3752 18.7194 84.5981 18.7194C85.7767 18.7194 86.725 19.1005 87.4407 19.8636C88.1254 20.6038 88.4669 21.5595 88.4669 22.7306ZM86.6154 22.7869C86.6154 22.0646 86.4572 21.4452 86.1366 20.9286C85.7624 20.3035 85.2276 19.9917 84.5345 19.9917C83.8172 19.9917 83.2723 20.3043 82.8981 20.9286C82.5775 21.446 82.4193 22.0752 82.4193 22.8195C82.4193 23.5418 82.5775 24.1612 82.8981 24.677C83.284 25.3021 83.823 25.6139 84.5186 25.6139C85.2 25.6139 85.7348 25.2956 86.1207 24.6607C86.4497 24.1343 86.6154 23.5083 86.6154 22.7869Z" fill="white"/>
<path d="M94.27 20.4095C94.0934 20.3777 93.9051 20.3614 93.7075 20.3614C93.0797 20.3614 92.5943 20.5924 92.2528 21.0551C91.9556 21.4631 91.8066 21.9789 91.8066 22.6016V26.7107H90.0229L90.0396 21.3456C90.0396 20.443 90.017 19.6212 89.9727 18.8802H91.527L91.5923 20.3785H91.6417C91.8301 19.8636 92.1272 19.449 92.534 19.138C92.9316 18.8581 93.361 18.7186 93.8239 18.7186C93.9888 18.7186 94.1378 18.73 94.27 18.7504V20.4095Z" fill="white"/>
<path d="M102.25 22.4245C102.25 22.7363 102.229 22.999 102.184 23.2137H96.8306C96.8515 23.9874 97.1102 24.579 97.6074 24.9871C98.0585 25.3519 98.642 25.5347 99.3585 25.5347C100.151 25.5347 100.874 25.4115 101.525 25.1642L101.804 26.372C101.044 26.6952 100.147 26.856 99.1115 26.856C97.866 26.856 96.8884 26.4985 96.1769 25.7844C95.4671 25.0703 95.1113 24.1114 95.1113 22.9085C95.1113 21.7275 95.442 20.7441 96.1041 19.9599C96.7971 19.1225 97.7338 18.7039 98.9123 18.7039C100.07 18.7039 100.946 19.1225 101.541 19.9599C102.013 20.625 102.25 21.4476 102.25 22.4245ZM100.548 21.9732C100.56 21.4574 100.443 21.0118 100.201 20.6356C99.8925 20.1516 99.4179 19.9101 98.7792 19.9101C98.1958 19.9101 97.7212 20.1459 97.3588 20.6193C97.0616 20.9955 96.885 21.4468 96.8306 21.9724H100.548V21.9732Z" fill="white"/>
<path d="M41.0549 9.16852C41.0549 10.1291 40.7594 10.8522 40.1693 11.3377C39.6227 11.7858 38.8459 12.0102 37.8398 12.0102C37.3409 12.0102 36.9141 11.989 36.5566 11.9466V6.69815C37.0229 6.6247 37.5251 6.58716 38.0675 6.58716C39.0259 6.58716 39.7483 6.79037 40.2354 7.19679C40.7812 7.65626 41.0549 8.31323 41.0549 9.16852ZM40.13 9.19219C40.13 8.56949 39.9609 8.09207 39.6227 7.75909C39.2845 7.42694 38.7907 7.26045 38.1403 7.26045C37.8641 7.26045 37.6289 7.2784 37.4339 7.31595V11.3059C37.5418 11.3222 37.7394 11.3296 38.0265 11.3296C38.6978 11.3296 39.2159 11.1476 39.5809 10.7836C39.9458 10.4196 40.13 9.88914 40.13 9.19219Z" fill="white"/>
<path d="M45.9603 10.0074C45.9603 10.5991 45.787 11.0839 45.4405 11.4642C45.0772 11.8551 44.5959 12.0502 43.9949 12.0502C43.4157 12.0502 42.9545 11.8633 42.6105 11.4879C42.2673 11.1133 42.0957 10.6407 42.0957 10.0711C42.0957 9.47534 42.2723 8.98649 42.6272 8.607C42.9821 8.22751 43.4592 8.03735 44.0602 8.03735C44.6395 8.03735 45.1049 8.22424 45.4572 8.59884C45.7921 8.96282 45.9603 9.4329 45.9603 10.0074ZM45.0504 10.0352C45.0504 9.68018 44.9718 9.37577 44.8152 9.12196C44.6311 8.81511 44.3691 8.66168 44.0284 8.66168C43.676 8.66168 43.4082 8.81511 43.224 9.12196C43.0667 9.37577 42.9888 9.68508 42.9888 10.0507C42.9888 10.4057 43.0675 10.7101 43.224 10.9639C43.414 11.2708 43.6785 11.4242 44.0201 11.4242C44.3549 11.4242 44.6177 11.2683 44.8069 10.9558C44.9693 10.6971 45.0504 10.3902 45.0504 10.0352Z" fill="white"/>
<path d="M52.5373 8.11572L51.3026 11.9629H50.4991L49.9877 10.2923C49.8579 9.87526 49.7525 9.46067 49.6704 9.04935H49.6545C49.5783 9.4721 49.4729 9.88587 49.3373 10.2923L48.794 11.9629H47.9813L46.8203 8.11572H47.7218L48.1679 9.94463C48.2759 10.3772 48.3646 10.7893 48.4358 11.1794H48.4517C48.517 10.8579 48.625 10.4482 48.7773 9.95279L49.3373 8.11654H50.0521L50.5887 9.91362C50.7184 10.3519 50.8239 10.7738 50.905 11.1802H50.9293C50.9888 10.7844 51.0783 10.3625 51.1972 9.91362L51.676 8.11654H52.5373V8.11572Z" fill="white"/>
<path d="M57.0836 11.9629H56.2064V9.75936C56.2064 9.08035 55.9419 8.74085 55.4112 8.74085C55.1509 8.74085 54.9408 8.83389 54.7776 9.02077C54.616 9.20766 54.534 9.42801 54.534 9.68019V11.962H53.6568V9.21501C53.6568 8.87714 53.6459 8.51071 53.625 8.11408H54.3959L54.4369 8.71555H54.4612C54.5633 8.52866 54.7157 8.37441 54.9157 8.25118C55.1534 8.10755 55.4196 8.03491 55.7109 8.03491C56.0792 8.03491 56.3855 8.1508 56.6291 8.38339C56.9321 8.66821 57.0836 9.09341 57.0836 9.65816V11.9629V11.9629Z" fill="white"/>
<path d="M59.5014 11.9629H58.625V6.35046H59.5014V11.9629Z" fill="white"/>
<path d="M64.6673 10.0074C64.6673 10.5991 64.4941 11.0839 64.1475 11.4642C63.7843 11.8551 63.3021 12.0502 62.702 12.0502C62.1219 12.0502 61.6607 11.8633 61.3175 11.4879C60.9743 11.1133 60.8027 10.6407 60.8027 10.0711C60.8027 9.47534 60.9794 8.98649 61.3343 8.607C61.6892 8.22751 62.1663 8.03735 62.7664 8.03735C63.3465 8.03735 63.811 8.22424 64.1643 8.59884C64.4991 8.96282 64.6673 9.4329 64.6673 10.0074ZM63.7566 10.0352C63.7566 9.68018 63.678 9.37577 63.5214 9.12196C63.3381 8.81511 63.0753 8.66168 62.7355 8.66168C62.3822 8.66168 62.1144 8.81511 61.9311 9.12196C61.7737 9.37577 61.6959 9.68508 61.6959 10.0507C61.6959 10.4057 61.7745 10.7101 61.9311 10.9639C62.1211 11.2708 62.3856 11.4242 62.7271 11.4242C63.0619 11.4242 63.3239 11.2683 63.5131 10.9558C63.6763 10.6971 63.7566 10.3902 63.7566 10.0352Z" fill="white"/>
<path d="M68.9112 11.9628H68.1236L68.0583 11.5197H68.034C67.7645 11.8731 67.3803 12.0502 66.8814 12.0502C66.5089 12.0502 66.2076 11.9335 65.9807 11.7017C65.7748 11.4911 65.6719 11.2292 65.6719 10.9182C65.6719 10.4481 65.8728 10.0899 66.2771 9.84177C66.6805 9.59368 67.248 9.47208 67.9787 9.47779V9.40597C67.9787 8.89917 67.7059 8.64617 67.1593 8.64617C66.7701 8.64617 66.4269 8.74166 66.1306 8.931L65.9523 8.36951C66.3189 8.14834 66.7717 8.03735 67.3058 8.03735C68.337 8.03735 68.8543 8.56783 68.8543 9.62877V11.0455C68.8543 11.4299 68.8735 11.736 68.9112 11.9628ZM68.0005 10.6407V10.0474C67.0329 10.0311 66.5491 10.2898 66.5491 10.8227C66.5491 11.0235 66.6043 11.1737 66.7173 11.274C66.8303 11.3744 66.9743 11.4242 67.1459 11.4242C67.3384 11.4242 67.5184 11.3646 67.6824 11.2463C67.8473 11.1271 67.9486 10.9762 67.9863 10.7909C67.9955 10.7493 68.0005 10.6987 68.0005 10.6407Z" fill="white"/>
<path d="M73.8956 11.9629H73.1171L73.0761 11.3451H73.0518C72.8032 11.8151 72.3797 12.0502 71.7846 12.0502C71.3091 12.0502 70.9132 11.8682 70.5993 11.5042C70.2854 11.1402 70.1289 10.6677 70.1289 10.0874C70.1289 9.46474 70.2988 8.96039 70.6403 8.57518C70.971 8.21609 71.3761 8.03655 71.8582 8.03655C72.3881 8.03655 72.7589 8.21038 72.9698 8.55886H72.9865V6.35046H73.8646V10.9264C73.8646 11.301 73.8746 11.6462 73.8956 11.9629ZM72.9865 10.3404V9.69897C72.9865 9.58798 72.9782 9.4982 72.9623 9.42965C72.9129 9.22399 72.8066 9.05098 72.645 8.91142C72.4818 8.77187 72.2851 8.70168 72.0583 8.70168C71.731 8.70168 71.4749 8.82818 71.2865 9.08199C71.0999 9.3358 71.0053 9.65979 71.0053 10.0556C71.0053 10.4359 71.0948 10.7444 71.2748 10.9819C71.4648 11.2349 71.7209 11.3614 72.0415 11.3614C72.3295 11.3614 72.5597 11.2561 72.7346 11.0447C72.9037 10.8497 72.9865 10.6146 72.9865 10.3404Z" fill="white"/>
<path d="M81.3978 10.0074C81.3978 10.5991 81.2245 11.0839 80.878 11.4642C80.5147 11.8551 80.0343 12.0502 79.4324 12.0502C78.854 12.0502 78.3928 11.8633 78.048 11.4879C77.7048 11.1133 77.5332 10.6407 77.5332 10.0711C77.5332 9.47534 77.7098 8.98649 78.0647 8.607C78.4196 8.22751 78.8967 8.03735 79.4986 8.03735C80.077 8.03735 80.5432 8.22424 80.8947 8.59884C81.2296 8.96282 81.3978 9.4329 81.3978 10.0074ZM80.4888 10.0352C80.4888 9.68018 80.4101 9.37577 80.2536 9.12196C80.0686 8.81511 79.8074 8.66168 79.4659 8.66168C79.1144 8.66168 78.8465 8.81511 78.6615 9.12196C78.5042 9.37577 78.4263 9.68508 78.4263 10.0507C78.4263 10.4057 78.505 10.7101 78.6615 10.9639C78.8515 11.2708 79.116 11.4242 79.4576 11.4242C79.7924 11.4242 80.056 11.2683 80.2452 10.9558C80.4068 10.6971 80.4888 10.3902 80.4888 10.0352Z" fill="white"/>
<path d="M86.116 11.9629H85.2396V9.75936C85.2396 9.08035 84.9751 8.74085 84.4436 8.74085C84.1833 8.74085 83.9732 8.83389 83.8108 9.02077C83.6484 9.20766 83.5672 9.42801 83.5672 9.68019V11.962H82.6892V9.21501C82.6892 8.87714 82.6791 8.51071 82.6582 8.11408H83.4283L83.4693 8.71555H83.4936C83.5965 8.52866 83.7489 8.37441 83.9481 8.25118C84.1866 8.10755 84.452 8.03491 84.7441 8.03491C85.1116 8.03491 85.4179 8.1508 85.6615 8.38339C85.9653 8.66821 86.116 9.09341 86.116 9.65816V11.9629V11.9629Z" fill="white"/>
<path d="M92.0203 8.75635H91.0544V10.6252C91.0544 11.1002 91.226 11.3377 91.5658 11.3377C91.7232 11.3377 91.8537 11.3247 91.9567 11.2977L91.9793 11.9465C91.806 12.0102 91.5784 12.042 91.298 12.042C90.9514 12.042 90.6819 11.9392 90.4869 11.7335C90.291 11.5279 90.1939 11.1818 90.1939 10.6963V8.75635H89.6172V8.11571H90.1939V7.41059L91.0535 7.15759V8.11489H92.0195V8.75635H92.0203Z" fill="white"/>
<path d="M96.6632 11.9629H95.7851V9.77568C95.7851 9.08607 95.5206 8.74085 94.9908 8.74085C94.584 8.74085 94.3061 8.9408 94.1537 9.3407C94.1278 9.42475 94.1127 9.52758 94.1127 9.64837V11.962H93.2363V6.35046H94.1127V8.66904H94.1295C94.4057 8.24711 94.8016 8.03655 95.3147 8.03655C95.678 8.03655 95.9785 8.15244 96.217 8.38503C96.5142 8.67475 96.6632 9.10565 96.6632 9.6753V11.9629V11.9629Z" fill="white"/>
<path d="M101.451 9.8573C101.451 10.0107 101.44 10.1397 101.419 10.245H98.7879C98.7996 10.6253 98.9252 10.915 99.1688 11.1157C99.3914 11.2953 99.6785 11.3851 100.03 11.3851C100.419 11.3851 100.774 11.3247 101.094 11.2031L101.231 11.7972C100.857 11.9555 100.417 12.0347 99.907 12.0347C99.296 12.0347 98.8147 11.8592 98.4665 11.5083C98.1166 11.1574 97.9434 10.6865 97.9434 10.0956C97.9434 9.51535 98.1049 9.03221 98.4305 8.64701C98.7704 8.23569 99.2299 8.03003 99.81 8.03003C100.377 8.03003 100.809 8.23569 101.1 8.64701C101.335 8.97345 101.451 9.37743 101.451 9.8573ZM100.614 9.63614C100.621 9.38232 100.563 9.16361 100.444 8.97917C100.292 8.74168 100.06 8.62253 99.7463 8.62253C99.4601 8.62253 99.2265 8.73841 99.0482 8.97101C98.9026 9.15626 98.8164 9.37743 98.7879 9.63614H100.614Z" fill="white"/>
</svg>
