<svg width="60" height="60" viewBox="0 0 60 60" fill="none" xmlns="http://www.w3.org/2000/svg">
<path d="M16.9996 21.7C15.6996 21.7 14.5996 22.8 14.5996 24.1V40.6C14.5996 41.9 15.6996 43 16.9996 43H42.9996C44.2996 43 45.3996 41.9 45.3996 40.6V24.1C45.3996 22.8 44.2996 21.7 42.9996 21.7H16.9996Z" fill="#FF3A44"/>
<path d="M20.5994 17C19.8994 17 19.3994 17.5 19.3994 18.2V20.6H26.4994V18.2C26.4994 17.5 25.9994 17 25.2994 17H20.5994Z" fill="#FF3A44"/>
<path d="M43 21.7H30V43H43C44.3 43 45.4 41.9 45.4 40.6V24.1C45.3 22.8 44.3 21.7 43 21.7Z" fill="black"/>
<path d="M34.7 17C34 17 33.5 17.5 33.5 18.2V20.6H40.6V18.2C40.6 17.5 40.1 17 39.4 17H34.7Z" fill="black"/>
<path d="M37.0992 28.8H39.3992V31.2H41.7992V33.5H39.3992V35.9H37.0992V33.5H34.6992V31.2H37.0992V28.8Z" fill="white"/>
<path d="M25.2992 31.2H18.1992V33.6H25.2992V31.2Z" fill="white"/>
</svg>
