<?xml version="1.0" encoding="UTF-8"?>
<!DOCTYPE svg PUBLIC "-//W3C//DTD SVG 1.1//EN" "http://www.w3.org/Graphics/SVG/1.1/DTD/svg11.dtd">
<svg xmlns="http://www.w3.org/2000/svg" version="1.1" width="86px" height="86px" style="shape-rendering:geometricPrecision; text-rendering:geometricPrecision; image-rendering:optimizeQuality; fill-rule:evenodd; clip-rule:evenodd" xmlns:xlink="http://www.w3.org/1999/xlink">
<g><path style="opacity:0.674" fill="#fffff" d="M 85.5,21.5 C 85.5,39.1667 85.5,56.8333 85.5,74.5C 81.1161,74.8256 76.7828,74.4922 72.5,73.5C 72.7093,72.914 73.0426,72.414 73.5,72C 76.8168,71.5017 80.1501,71.335 83.5,71.5C 83.5,55.5 83.5,39.5 83.5,23.5C 56.5,23.5 29.5,23.5 2.5,23.5C 2.5,26.8333 2.5,30.1667 2.5,33.5C 10.1667,33.5 17.8333,33.5 25.5,33.5C 25.5,34.5 25.5,35.5 25.5,36.5C 17.8333,36.5 10.1667,36.5 2.5,36.5C 2.5,48.1667 2.5,59.8333 2.5,71.5C 21.5,71.5 40.5,71.5 59.5,71.5C 59.5,72.5 59.5,73.5 59.5,74.5C 39.5,74.5 19.5,74.5 -0.5,74.5C -0.5,56.8333 -0.5,39.1667 -0.5,21.5C 1.16667,21.5 2.83333,21.5 4.5,21.5C 4.21083,17.8936 4.54416,14.3936 5.5,11C 12.1583,10.5004 18.825,10.3337 25.5,10.5C 25.5,14.1667 25.5,17.8333 25.5,21.5C 37.1667,21.5 48.8333,21.5 60.5,21.5C 60.5,18.1667 60.5,14.8333 60.5,11.5C 67.1667,11.5 73.8333,11.5 80.5,11.5C 80.8174,14.5719 80.4841,17.5719 79.5,20.5C 78.5344,18.604 78.2011,16.604 78.5,14.5C 73.1667,14.5 67.8333,14.5 62.5,14.5C 62.5,16.8333 62.5,19.1667 62.5,21.5C 70.1667,21.5 77.8333,21.5 85.5,21.5 Z M 7.5,13.5 C 9.60395,13.2011 11.604,13.5344 13.5,14.5C 11.029,16.9621 11.529,18.9621 15,20.5C 18.471,18.9621 18.971,16.9621 16.5,14.5C 18.7427,13.5258 21.076,13.1924 23.5,13.5C 23.5,16.1667 23.5,18.8333 23.5,21.5C 18.1667,21.5 12.8333,21.5 7.5,21.5C 7.5,18.8333 7.5,16.1667 7.5,13.5 Z"/></g>
<g><path style="opacity:0.711" fill="#fffff" d="M 66.5,16.5 C 69.2469,16.1866 71.9135,16.52 74.5,17.5C 73.1667,17.8333 71.8333,18.1667 70.5,18.5C 68.6672,18.4146 67.3339,17.7479 66.5,16.5 Z"/></g>
<g><path style="opacity:0.639" fill="#fffff" d="M 48.5,33.5 C 49.2891,33.7828 49.9558,34.2828 50.5,35C 46.8333,38.6667 43.1667,42.3333 39.5,46C 43.3577,46.0791 47.0244,46.7458 50.5,48C 45.9852,52.6819 41.3185,57.1819 36.5,61.5C 35.6919,61.1924 35.0253,60.6924 34.5,60C 37.8333,56.6667 41.1667,53.3333 44.5,50C 40.9716,49.911 37.6382,49.2444 34.5,48C 39.3699,43.2979 44.0366,38.4646 48.5,33.5 Z"/></g>
<g><path style="opacity:0.548" fill="#fffff" d="M 8.5,42.5 C 12.3751,42.0845 16.0418,42.5845 19.5,44C 16.0283,45.5799 12.3616,45.9133 8.5,45C 7.40191,44.2303 7.40191,43.397 8.5,42.5 Z"/></g>
<g><path style="opacity:0.49" fill="#fffff" d="M 61.5,71.5 C 64.1667,71.5 66.8333,71.5 69.5,71.5C 69.5,72.5 69.5,73.5 69.5,74.5C 66.8333,74.5 64.1667,74.5 61.5,74.5C 61.5,73.5 61.5,72.5 61.5,71.5 Z"/></g>
</svg>
