<svg width="57" height="57" viewBox="0 0 57 57" fill="none" xmlns="http://www.w3.org/2000/svg">
<path d="M10.5453 38.6888C7.98031 39.045 5.91406 37.2638 5.91406 34.6988C5.91406 33.4875 5.91406 32.2763 5.91406 31.1363C5.91406 29.2125 7.26781 27.8588 9.19156 27.8588C10.0466 27.8588 10.9016 27.8588 11.7566 27.8588C11.9703 27.8588 12.1128 27.7875 12.2553 27.645C13.6091 26.0063 15.0341 24.4388 16.3878 22.8C17.3141 21.7313 18.4541 21.1613 19.8791 21.2325C23.1566 21.2325 26.3628 21.2325 29.6403 21.2325C30.7091 21.2325 31.6353 21.5888 32.4903 22.23C34.6278 24.0113 36.7653 25.7213 38.8316 27.5025C39.4016 28.0013 40.0428 28.0013 40.6841 28.1438C42.9641 28.5713 45.3153 28.9988 47.5953 29.4263C49.1628 29.7113 50.1603 30.9938 50.2316 32.5613C50.2316 33.63 50.2316 34.6988 50.2316 35.6963C50.2316 37.335 48.9491 38.6888 47.3103 38.76C47.0966 38.76 46.9541 38.76 47.0253 38.475C47.4528 35.5538 45.4578 32.775 42.6078 32.205C39.6866 31.635 36.7653 33.4875 36.0528 36.3375C35.9103 36.9788 35.8391 37.6913 35.9103 38.3325C35.9816 38.6888 35.9103 38.76 35.5541 38.76C33.2028 38.76 30.8516 38.76 28.5003 38.76C26.3628 38.76 24.2253 38.76 22.0878 38.76C21.8028 38.76 21.7316 38.6888 21.8028 38.4038C22.2303 35.4825 20.2353 32.7038 17.3141 32.1338C14.2503 31.635 11.4003 33.4163 10.6878 36.2663C10.4741 37.1213 10.4028 37.905 10.5453 38.6888Z" fill="black"/>
<path d="M16.1028 33.1312C18.6678 33.1312 20.6628 35.1975 20.5915 37.7625C20.5915 40.2562 18.454 42.2512 15.9603 42.2512C13.4665 42.2512 11.4003 40.185 11.4715 37.62C11.5428 35.1262 13.609 33.1312 16.1028 33.1312Z" fill="#E61717"/>
<path d="M41.3256 42.2512C38.8319 42.2512 36.7656 40.185 36.7656 37.6912C36.7656 35.1975 38.8319 33.1312 41.3256 33.1312C43.8194 33.1312 45.8856 35.1975 45.8856 37.7625C45.8856 40.2562 43.8194 42.2512 41.3256 42.2512Z" fill="#E61717"/>
<path d="M29.8541 27.8587C28.2154 27.8587 26.6478 27.8587 25.0091 27.8587C24.2253 27.8587 23.7979 27.4312 23.7979 26.6475C23.7979 25.8637 23.7979 25.0087 23.7979 24.225C23.7979 23.5125 24.2254 23.085 24.9379 23.085C26.5766 23.085 28.1441 23.085 29.7829 23.085C30.1391 23.085 30.3529 23.1562 30.6379 23.37C32.1341 24.51 33.5591 25.65 35.0554 26.8612C35.2691 27.075 35.4829 27.2887 35.4116 27.5737C35.2691 27.93 34.9841 27.93 34.6991 27.93C33.0604 27.93 31.4216 27.93 29.8541 27.8587C29.8541 27.93 29.8541 27.93 29.8541 27.8587Z" fill="#FEFEFE"/>
<path d="M18.0262 27.8587C17.3137 27.8587 16.6012 27.8587 15.8175 27.8587C15.5325 27.8587 15.3187 27.7875 15.1762 27.5025C15.0337 27.2175 15.1762 27.075 15.3187 26.8612C16.3162 25.7212 17.2425 24.5812 18.24 23.4412C18.4537 23.1562 18.81 23.0137 19.1662 23.0137C19.5225 23.0137 19.8787 23.0137 20.235 23.0137C20.8762 23.0137 21.3037 23.4412 21.3037 24.0825C21.3037 25.0087 21.3037 25.8637 21.3037 26.79C21.3037 27.4312 20.8762 27.7875 20.235 27.8587C19.5225 27.93 18.7387 27.8587 18.0262 27.8587Z" fill="#FEFEFE"/>
<path d="M25.9356 31.7775C25.7218 31.7775 25.4368 31.7775 25.2231 31.7775C24.6531 31.7062 24.2256 31.2787 24.2256 30.7087C24.2256 30.1387 24.6531 29.7113 25.2231 29.7113C25.7218 29.7113 26.2206 29.7113 26.7193 29.7113C27.2893 29.7113 27.7168 30.21 27.7168 30.78C27.7168 31.35 27.2893 31.7775 26.7193 31.8488C26.4343 31.7775 26.1493 31.7775 25.9356 31.7775Z" fill="#FEFEFE"/>
<path d="M18.1686 37.6912C18.1686 38.8312 17.2423 39.7575 16.1023 39.7575C14.9623 39.7575 13.9648 38.8312 13.9648 37.62C13.9648 36.48 14.8911 35.5537 16.0311 35.5537C17.2423 35.625 18.1686 36.5512 18.1686 37.6912Z" fill="#FEFEFE"/>
<path d="M43.4625 37.6912C43.4625 38.8312 42.5363 39.7575 41.3963 39.7575C40.2563 39.7575 39.2588 38.8312 39.2588 37.62C39.2588 36.48 40.185 35.5537 41.325 35.5537C42.465 35.625 43.4625 36.5512 43.4625 37.6912Z" fill="#FEFEFE"/>
<path d="M43.0351 26.6475C42.8213 26.6475 42.5363 26.6475 42.3226 26.6475C42.3226 26.6475 42.3226 26.6475 42.2513 26.6475C41.9663 26.6475 41.8238 26.5762 41.8238 26.22C41.8238 25.65 41.3251 25.1513 40.7551 25.2225C40.3988 25.2225 40.1851 25.365 39.9001 25.5788C39.7576 25.7213 39.6151 25.7212 39.4726 25.65C39.1876 25.4362 38.9026 25.1513 38.6888 24.8663C38.6176 24.7238 38.6176 24.5813 38.6888 24.51C38.6888 24.4388 38.7601 24.4388 38.7601 24.3675C39.1876 23.94 39.1163 23.1562 38.6176 22.8C38.4038 22.6575 38.1901 22.5863 37.9051 22.515C37.6201 22.515 37.5488 22.3725 37.5488 22.1588C37.5488 22.0875 37.5488 22.0875 37.5488 22.0162C37.5488 21.7312 37.5488 21.4463 37.5488 21.1613C37.5488 21.0188 37.6913 20.9475 37.8338 20.8762C37.9051 20.8762 38.0476 20.8762 38.1188 20.8762C38.5463 20.805 38.9026 20.4488 38.9738 19.95C39.0451 19.5938 38.9026 19.2375 38.6176 18.9525C38.4751 18.81 38.4751 18.6675 38.5463 18.525C38.7601 18.24 39.0451 17.955 39.3301 17.7412C39.4726 17.67 39.6151 17.67 39.6863 17.7412L39.7576 17.8125C40.1851 18.1688 40.8263 18.1687 41.2538 17.7412C41.4676 17.5275 41.6101 17.2425 41.6101 16.9575C41.6101 16.7437 41.7526 16.6012 41.9663 16.6012C42.2513 16.6012 42.6076 16.6012 42.8926 16.6012C43.1063 16.6012 43.2488 16.7437 43.2488 16.9575V17.0287C43.2488 17.5987 43.7476 18.0262 44.3176 18.0262C44.6738 18.0262 44.8876 17.8837 45.1726 17.67C45.3151 17.5275 45.4576 17.5275 45.6001 17.67C45.8851 17.8837 46.1701 18.1687 46.3838 18.4537C46.4551 18.5962 46.4551 18.7387 46.3838 18.81C46.3838 18.8812 46.3126 18.8813 46.3126 18.9525C45.8851 19.4513 45.9563 20.3063 46.5976 20.6625C46.7401 20.7337 46.9538 20.805 47.1676 20.805C47.3813 20.805 47.5238 20.9475 47.5238 21.1613C47.5238 21.2325 47.5238 21.2325 47.5238 21.3038C47.5238 21.5175 47.5238 21.8025 47.5238 22.0162C47.4526 22.0875 47.5238 22.1588 47.5238 22.23C47.5238 22.3725 47.3813 22.4438 47.2388 22.515C47.1676 22.515 47.0963 22.515 47.0251 22.515C46.4551 22.5863 45.9563 23.085 46.0276 23.7262C46.0276 24.0112 46.1701 24.225 46.3838 24.4387C46.5263 24.5812 46.5263 24.7238 46.4551 24.8663C46.2413 25.1513 45.9563 25.4362 45.6713 25.65C45.6001 25.7212 45.5288 25.7212 45.3863 25.7212C45.3151 25.7212 45.2438 25.65 45.1726 25.5788C44.7451 25.2225 44.0326 25.2225 43.6763 25.5788C43.4626 25.7925 43.3201 26.0063 43.3201 26.2913C43.4626 26.505 43.3201 26.5763 43.0351 26.6475C43.0351 26.5763 43.0351 26.5763 43.0351 26.6475ZM44.2463 24.0113C44.1751 24.0113 44.1751 24.0113 44.2463 24.0113C43.8188 23.5838 43.3913 23.1562 43.0351 22.8C42.9638 22.7288 42.9638 22.7288 42.8926 22.8C42.5363 22.9425 42.1088 22.9425 41.7526 22.8C40.8976 22.515 40.3988 21.66 40.6126 20.7338C40.6126 20.6625 40.6838 20.52 40.7551 20.52C40.8263 20.52 40.8976 20.52 40.9688 20.5912C41.1826 20.805 41.4676 21.09 41.6813 21.3038C41.7526 21.375 41.8238 21.375 41.8951 21.375C42.0376 21.375 42.2513 21.3038 42.3938 21.3038C42.4651 21.3038 42.4651 21.2325 42.4651 21.2325C42.5363 21.09 42.5363 20.8763 42.5363 20.7338C42.5363 20.6625 42.5363 20.5912 42.4651 20.52C42.1801 20.235 41.9663 20.0213 41.6813 19.7363C41.5388 19.5938 41.6101 19.4513 41.7526 19.38C41.8951 19.3088 42.0376 19.3088 42.2513 19.3088C43.4626 19.3088 44.3176 20.52 43.8901 21.7313C43.8901 21.8025 43.8901 21.8025 43.8901 21.8738C44.2463 22.23 44.6738 22.5862 45.0301 23.0137L45.1013 23.085C45.8138 22.0163 45.6713 20.3775 44.4601 19.38C43.3913 18.4538 41.6813 18.4537 40.5413 19.5225C39.4726 20.52 39.3301 22.23 40.3276 23.37C41.3251 24.5812 42.9638 24.8663 44.2463 24.0113Z" fill="#E61717"/>
</svg>
