<svg xmlns="http://www.w3.org/2000/svg" viewBox="0 0 200 200"><path d="M192.85 138.35H23V24.7a2 2 0 0 0-2-2H4.35a2 2 0 1 0 0 4H19v113.65a2 2 0 0 0 2 2h169.85v16.17a2 2 0 0 0 4 0v-18.17a2 2 0 0 0-2-2zM162.22 151a24.27 24.27 0 0 0-20.55 11.36 2 2 0 0 0-1.73-1H77.2a24.26 24.26 0 0 0-44.14 13.94 2 2 0 0 0 4 0 20.28 20.28 0 0 1 40.55 0 2 2 0 0 0 4 0 24 24 0 0 0-2.13-9.92h60.6a24.12 24.12 0 0 0-2.14 9.94 2 2 0 0 0 4 0 20.28 20.28 0 0 1 40.55 0 2 2 0 0 0 4 0A24.3 24.3 0 0 0 162.22 151zm21.48-59.82a86.66 86.66 0 0 0-26.11-23.82 26.19 26.19 0 0 0-13.09-3.48H92.06a1.81 1.81 0 0 0-1.3.54l-23.1 23.1L34.63 94a1.83 1.83 0 0 0-1.49 1.8v8.58l-5.33 2.52a1.83 1.83 0 0 0-1 1.66v11a1.84 1.84 0 0 0 1.84 1.84H52.1a1.84 1.84 0 0 0 0-3.68H30.44v-8l5.33-2.53a1.83 1.83 0 0 0 1-1.66v-8.25L53.42 94v8.6h-12.2a1.84 1.84 0 1 0 0 3.68h14.05a1.84 1.84 0 0 0 1.84-1.84V93.32L68.92 91a1.85 1.85 0 0 0 1-.51l22.95-23h51.67a22.55 22.55 0 0 1 11.26 3 84.71 84.71 0 0 1 24.52 22.31v24.86h-2.94a1.84 1.84 0 0 0 0 3.68h4.78a1.84 1.84 0 0 0 1.84-1.84V92.2a1.91 1.91 0 0 0-.31-1.03zM158 102.65a16.45 16.45 0 1 0 16.44 16.45A16.47 16.47 0 0 0 158 102.65zm0 29.2a12.77 12.77 0 1 1 12.76-12.76A12.78 12.78 0 0 1 158 131.86zM54.58 117.58a16.44 16.44 0 0 0 30.76 8.07 1.36 1.36 0 0 0 .29 0H128a1.84 1.84 0 0 0 0-3.68H86.85a16.44 16.44 0 1 0-32.27-4.42zm29.2 0A12.77 12.77 0 1 1 71 104.81a12.77 12.77 0 0 1 12.79 12.77zm39.5-25.88a1.84 1.84 0 0 0 1.84-1.84v-19a1.84 1.84 0 0 0-1.84-1.84H97.1a1.82 1.82 0 0 0-1.3.54L77.92 87.5a1.84 1.84 0 0 0 1.3 3.14h35a1.84 1.84 0 1 0 0-3.68H83.67l14.18-14.2h23.6v17.1a1.84 1.84 0 0 0 1.84 1.84zm10.42-22.62a1.84 1.84 0 0 0-1.84 1.84v19a1.84 1.84 0 0 0 1.84 1.84H170a1.84 1.84 0 0 0 1.3-3.14l-15-15a1.842 1.842 0 0 0-2.6 2.61L165.5 88h-30V70.92a1.84 1.84 0 0 0-1.81-1.84z"/></svg>