<?xml version="1.0" encoding="UTF-8"?>
<!DOCTYPE svg PUBLIC "-//W3C//DTD SVG 1.1//EN" "http://www.w3.org/Graphics/SVG/1.1/DTD/svg11.dtd">
<svg xmlns="http://www.w3.org/2000/svg" version="1.1" width="268px" height="148px" style="shape-rendering:geometricPrecision; text-rendering:geometricPrecision; image-rendering:optimizeQuality; fill-rule:evenodd; clip-rule:evenodd" xmlns:xlink="http://www.w3.org/1999/xlink">
<g><path style="opacity:0.995" fill="#B4B4B4" d="M 137.5,75.5 C 140.5,74.5 142.5,72.5 143.5,69.5C 143.833,68.5 144.5,67.8333 145.5,67.5C 157.08,57.4235 168.247,46.7568 179,35.5C 182.036,38.7044 185.203,41.7044 188.5,44.5C 189.833,44.8333 189.833,45.1667 188.5,45.5C 183.801,49.1695 180.134,53.1695 177.5,57.5C 177.158,58.3382 176.492,58.6716 175.5,58.5C 172.114,60.8405 169.78,63.5071 168.5,66.5C 167.833,67.8333 166.833,68.8333 165.5,69.5C 163.871,69.3723 162.538,70.3723 161.5,72.5C 152.826,82.0071 143.66,91.0071 134,99.5C 115.646,81.9786 97.4793,64.3119 79.5,46.5C 80.7558,43.8213 82.7558,41.1547 85.5,38.5C 87.1436,38.1898 88.1436,37.1898 88.5,35.5C 103.786,49.1103 118.786,63.777 133.5,79.5C 135.188,78.4787 136.521,77.1454 137.5,75.5 Z"/></g>
<g><path style="opacity:1" fill="#B4B4B4" d="M 88.5,35.5 C 88.1436,37.1898 87.1436,38.1898 85.5,38.5C 85.8564,36.8102 86.8564,35.8102 88.5,35.5 Z"/></g>
<g><path style="opacity:0.82" fill="#B4B4B4" d="M 85.5,38.5 C 82.7558,41.1547 80.7558,43.8213 79.5,46.5C 78.4265,45.7494 78.2599,44.7494 79,43.5C 80.7772,41.2101 82.9438,39.5434 85.5,38.5 Z"/></g>
<g><path style="opacity:0.922" fill="#B4B4B4" d="M 188.5,44.5 C 185.203,41.7044 182.036,38.7044 179,35.5C 168.247,46.7568 157.08,57.4235 145.5,67.5C 156.492,56.008 167.659,44.6747 179,33.5C 182.773,36.7635 185.94,40.4302 188.5,44.5 Z"/></g>
<g><path style="opacity:0.118" fill="#B4B4B4" d="M 188.5,45.5 C 185.564,50.1053 181.898,54.1053 177.5,57.5C 180.134,53.1695 183.801,49.1695 188.5,45.5 Z"/></g>
<g><path style="opacity:0.4" fill="#B4B4B4" d="M 175.5,58.5 C 173.906,61.7642 171.573,64.4309 168.5,66.5C 169.78,63.5071 172.114,60.8405 175.5,58.5 Z"/></g>
<g><path style="opacity:0.012" fill="#B4B4B4" d="M 165.5,69.5 C 164.738,71.2624 163.404,72.2624 161.5,72.5C 162.538,70.3723 163.871,69.3723 165.5,69.5 Z"/></g>
<g><path style="opacity:0.914" fill="#B4B4B4" d="M 143.5,69.5 C 142.5,72.5 140.5,74.5 137.5,75.5C 139.167,73.1667 141.167,71.1667 143.5,69.5 Z"/></g>
</svg>
