<svg xmlns="http://www.w3.org/2000/svg" viewBox="0 0 200 200"><path d="M199 40.34a.92.92 0 0 0 0-.16l-4.2-23.6a2 2 0 0 0-2-1.65h-54.67a2 2 0 0 0-1 .24L112.27 28.8a2.007 2.007 0 0 0 1.93 3.52l24.46-13.43h52.46L195 40.7v135.6a8.1 8.1 0 0 1-8.09 8.09H77a8.1 8.1 0 0 1-8.09-8.09V71.5a29 29 0 0 1 29-29h87.2a2 2 0 1 0 0-4H97.87a32.78 32.78 0 0 0-12.67 2.55 2 2 0 0 0-.67-2.06L58.06 17.47A21.81 21.81 0 0 0 36.69 14L2.53 26.84a2 2 0 0 0-1.3 1.87v6.8a2 2 0 0 0 2.34 2l28.9-4.9a17.78 17.78 0 0 1 16.66 6.22l10.7 13a2 2 0 0 0 1.55.73 2.06 2.06 0 0 0 1.28-.45 2 2 0 0 0 .27-2.83l-10.7-13a21.78 21.78 0 0 0-20.43-7.62L5.24 33.14v-3l32.86-12.4a17.8 17.8 0 0 1 17.43 2.84L82 42.1a1.79 1.79 0 0 0 .46.27 33 33 0 0 0-17.58 29.15v104.8A12.12 12.12 0 0 0 77 188.41h109.9a12.12 12.12 0 0 0 12.1-12.1V40.53a1.37 1.37 0 0 0 0-.19zM128.23 142.1a19.71 19.71 0 0 0 18.15-5.89 19.23 19.23 0 0 0 5.23-16 37.77 37.77 0 0 0-3.16-10.8A111.94 111.94 0 0 0 137 89.88l-2.3-3.15-1.07-1.43a2 2 0 0 0-3.07-.19l-.15.16a4 4 0 0 0-.41.46 146.79 146.79 0 0 0-8.91 13 72.65 72.65 0 0 0-7.76 16.59c-1.63 5.38-1.57 10.14.2 14.54a19.82 19.82 0 0 0 14.72 12.24zm-11.08-25.62a68.64 68.64 0 0 1 7.36-15.68c2.1-3.5 4.55-7.12 7.44-11l1.76 2.4a107.37 107.37 0 0 1 11.06 18.87 33.86 33.86 0 0 1 2.85 9.64 15.34 15.34 0 0 1-4.16 12.75 15.79 15.79 0 0 1-26.24-5.08c-1.4-3.54-1.43-7.4-.07-11.9zm69.2-61.22a2 2 0 0 0-2.83 0l-29.8 29.8a2.005 2.005 0 0 0 2.83 2.84l29.8-29.82a2 2 0 0 0 0-2.83zM111.52 88.5a2 2 0 0 0 1.41-3.42l-29.8-29.8a2.001 2.001 0 0 0-2.83 2.83l29.8 29.82a2 2 0 0 0 1.42.58zm70.6 89.87a2.008 2.008 0 1 0 2.84-2.84l-29.8-29.8a2.008 2.008 0 0 0-2.84 2.84zm-103.23 0a2 2 0 0 0 2.84 0l29.8-29.8a2.008 2.008 0 1 0-2.84-2.84l-29.8 29.8a2 2 0 0 0 0 2.84z"/></svg>