<svg height="512pt" viewBox="0 -2 512 512" width="512pt" xmlns="http://www.w3.org/2000/svg"><path d="m305.707031 29.957031h175.65625v477.136719h-175.65625zm0 0" fill="#db1616"/><path d="m26.542969 211.738281h339.089843v295.351563h-339.089843zm0 0" fill="#ff3131"/><path d="m26.539062 211.738281h339.09375v34.726563h-339.09375zm0 0" fill="#db1616"/><path d="m0 180.421875h392.171875v46.296875h-392.171875zm0 0" fill="#5b5353"/><path d="m277.558594 0h234.441406v46.296875h-234.441406zm0 0" fill="#e5e5e5"/><path d="m341.449219 77.957031h104.167969v66.378907h-104.167969zm0 0" fill="#c3fcf9"/><path d="m445.617188 70.121094h-104.164063c-4.328125 0-7.839844 3.507812-7.839844 7.835937v66.382813c0 4.324218 3.511719 7.835937 7.839844 7.835937h104.167969c4.328125 0 7.835937-3.511719 7.835937-7.835937v-66.382813c0-4.328125-3.507812-7.835937-7.839843-7.835937zm-96.328126 15.671875h36.410157v50.707031h-36.410157zm88.492188 50.707031h-36.410156v-50.707031h36.410156zm0 0" fill="#ff3131"/><path d="m66.386719 294.460938h259.398437v212.632812h-259.398437zm0 0" fill="#e5e5e5"/><path d="m333.617188 294.464844v212.625h-15.671876v-204.789063h-243.722656v204.789063h-15.675781v-212.625c0-4.324219 3.511719-7.835938 7.839844-7.835938h259.394531c4.335938 0 7.835938 3.511719 7.835938 7.835938zm0 0" fill="#db1616"/><g fill="#b3b3b3"><path d="m301.277344 331h-210.378906c-4.328126 0-7.839844-3.507812-7.839844-7.835938 0-4.328124 3.511718-7.839843 7.839844-7.839843h210.378906c4.324218 0 7.835937 3.511719 7.835937 7.839843 0 4.328126-3.507812 7.835938-7.835937 7.835938zm0 0"/><path d="m301.277344 369.808594h-210.378906c-4.328126 0-7.839844-3.507813-7.839844-7.835938s3.511718-7.839844 7.839844-7.839844h210.378906c4.324218 0 7.835937 3.511719 7.835937 7.839844s-3.507812 7.835938-7.835937 7.835938zm0 0"/><path d="m301.277344 408.617188h-210.378906c-4.328126 0-7.839844-3.511719-7.839844-7.839844s3.511718-7.835938 7.839844-7.835938h210.378906c4.324218 0 7.835937 3.507813 7.835937 7.835938s-3.507812 7.839844-7.835937 7.839844zm0 0"/><path d="m301.277344 447.421875h-210.378906c-4.328126 0-7.839844-3.507813-7.839844-7.835937 0-4.328126 3.511718-7.835938 7.839844-7.835938h210.378906c4.324218 0 7.835937 3.507812 7.835937 7.835938 0 4.328124-3.507812 7.835937-7.835937 7.835937zm0 0"/><path d="m301.277344 486.230469h-210.378906c-4.328126 0-7.839844-3.507813-7.839844-7.835938s3.511718-7.835937 7.839844-7.835937h210.378906c4.324218 0 7.835937 3.507812 7.835937 7.835937s-3.507812 7.835938-7.835937 7.835938zm0 0"/></g><path d="m233.195312 142.636719c0 55.460937-44.960937 100.421875-100.421874 100.421875-55.460938 0-100.421876-44.960938-100.421876-100.421875 0-55.464844 44.960938-100.425781 100.421876-100.425781 55.460937 0 100.421874 44.960937 100.421874 100.425781zm0 0" fill="#e5e5e5"/><path d="m132.773438 250.894531c-59.691407 0-108.257813-48.566406-108.257813-108.257812 0-59.695313 48.566406-108.261719 108.257813-108.261719 59.695312 0 108.261718 48.566406 108.261718 108.261719 0 59.691406-48.566406 108.257812-108.261718 108.257812zm0-200.84375c-51.050782 0-92.585938 41.535157-92.585938 92.585938s41.535156 92.585937 92.585938 92.585937c51.054687 0 92.589843-41.535156 92.589843-92.585937s-41.535156-92.585938-92.589843-92.585938zm0 0" fill="#b3b3b3"/><path d="m86.710938 174.28125c-1.757813-9.371094-1.878907-19.199219 2.445312-27.925781 11.53125-23.28125 31.960938-48.195313 29.65625-78.6875 0 0 36.90625 28.511719 35.257812 75.074219 0 0 14.535157-16.765626 14.535157-46.726563 0 0 28.199219 58.015625.511719 95.101563-22.109376 29.613281-75.558594 19.625-82.40625-16.835938zm0 0" fill="#ff3131"/></svg>