<svg xmlns="http://www.w3.org/2000/svg" id="Layer_1" viewBox="0 0 200 200"><title>Final</title><path d="M190.59,166.76a2.08,2.08,0,1,0,0,4.16,5.25,5.25,0,0,1,0,10.5H12a6.75,6.75,0,1,1,0-13.5H33.75a2.08,2.08,0,0,0,2.08-2.08v-.55a9,9,0,0,1,1.61-5.14,2.07,2.07,0,0,0-.11-2.51A85.07,85.07,0,1,1,188,103.41a84.3,84.3,0,0,1-26.52,61.68,1.75,1.75,0,0,0-.28.33H156.4a2.09,2.09,0,0,0,0,4.17h17.18a2.09,2.09,0,0,0,0-4.17H167a88.31,88.31,0,0,0,25.12-62A89.23,89.23,0,1,0,33.19,159.14a13,13,0,0,0-1.43,4.62H12a10.91,10.91,0,0,0,0,21.82H190.59a9.41,9.41,0,1,0,0-18.82Z"/><path d="M102.88,42.75a2.08,2.08,0,0,0,0-4.16A64.88,64.88,0,0,0,45.05,74.17l-.15.21a3,3,0,0,0-.15.38,64.64,64.64,0,0,0,5.84,66.92c0,.07.06.13.1.19a2.15,2.15,0,0,0,.23.28A64.83,64.83,0,1,0,133,46a2.08,2.08,0,0,0-1.94,3.69A60.73,60.73,0,0,1,152.5,68.47L118.78,92.22A2.08,2.08,0,0,0,120,96a2,2,0,0,0,1.19-.38L154.78,72a60.88,60.88,0,0,1,6.83,46.67,2.18,2.18,0,0,0-.27-.11l-23.06-7.1a2.08,2.08,0,1,0-1.23,4l23.07,7.1c.1,0,.21,0,.31,0A60.61,60.61,0,0,1,55.5,141.24l29.25-19a2.09,2.09,0,0,0-2.27-3.5L53,137.89a60.48,60.48,0,0,1-5.3-59.62L84.44,98.21a19.16,19.16,0,0,0,24.08,23.53l9.49,27.4a2.08,2.08,0,0,0,2,1.4,2.06,2.06,0,0,0,.68-.11,2.09,2.09,0,0,0,1.28-2.65l-9.6-27.71a19.16,19.16,0,0,0,9.72-16.66,2.09,2.09,0,0,0-4.17,0,15,15,0,1,1-5.92-12,2.08,2.08,0,0,0,2.52-3.31,18.94,18.94,0,0,0-9.65-3.8l-2.2-35a2.08,2.08,0,0,0-4.16.26l2.19,34.72A19.25,19.25,0,0,0,86,94.32L49.54,74.53A60.74,60.74,0,0,1,102.88,42.75Z"/></svg>