<svg width="48" height="47" viewBox="0 0 48 47" fill="none" xmlns="http://www.w3.org/2000/svg">
<path d="M33.5205 14.0217C32.4005 14.0217 31.5205 14.8833 31.5205 15.98V30.3933H34.2405C34.5605 32.2733 36.2405 33.6833 38.1605 33.6833C40.1605 33.6833 41.7605 32.2733 42.0805 30.3933H43.5205C44.6405 30.3933 45.5205 29.5317 45.5205 28.435V22.09C45.5205 20.7583 44.5605 19.4267 44.4005 19.27L41.7605 15.6667C41.1205 14.8833 40.1605 14.0217 38.9605 14.0217H33.5205Z" fill="black"/>
<path d="M37.5209 18.0167H41.7609L43.3609 20.1317C43.6009 20.445 44.0809 21.2283 44.1609 21.9333H37.5209C37.2009 21.9333 36.8809 21.5417 36.8809 21.3067V18.6433C36.8809 18.2517 37.2809 18.0167 37.5209 18.0167Z" fill="white"/>
<path d="M38.2405 32.43C39.7427 32.43 40.9605 31.2376 40.9605 29.7667C40.9605 28.2957 39.7427 27.1033 38.2405 27.1033C36.7383 27.1033 35.5205 28.2957 35.5205 29.7667C35.5205 31.2376 36.7383 32.43 38.2405 32.43Z" fill="white"/>
<path d="M19.8404 23.8917H2.40039V28.5133C2.40039 29.61 3.28039 30.4717 4.32039 30.4717H6.96039C7.28039 32.3517 8.88039 33.7617 10.8004 33.7617C12.7204 33.7617 14.3204 32.3517 14.6404 30.4717H19.7604H29.6004V23.8917H19.8404Z" fill="#FF3A44"/>
<path d="M10.72 32.43C12.2222 32.43 13.44 31.2376 13.44 29.7667C13.44 28.2957 12.2222 27.1033 10.72 27.1033C9.21779 27.1033 8 28.2957 8 29.7667C8 31.2376 9.21779 32.43 10.72 32.43Z" fill="white"/>
<path d="M10 13.2383C9.36004 13.2383 8.72004 13.63 8.48004 14.1783L7.28004 16.45C7.12004 16.685 7.04004 16.9983 7.04004 17.3117V21.15C7.04004 21.62 7.44004 22.09 8.00004 22.09H8.48004C8.64004 23.03 9.52004 23.8133 10.56 23.8133C11.6 23.8133 12.48 23.1083 12.64 22.09H18.96C19.12 23.03 20 23.8133 21.04 23.8133C22.08 23.8133 22.96 23.1083 23.12 22.09H23.52C24.08 22.09 24.56 21.62 24.56 21.0717V18.8C24.56 17.9383 23.92 17.2333 23.12 17.155L20.24 16.685L17.76 13.865C17.44 13.4733 16.96 13.2383 16.4 13.2383H10ZM10 13.9433H13.28V16.685H8.00004L9.12004 14.4917C9.28004 14.1783 9.60004 13.9433 10 13.9433ZM14 13.9433H16.32C16.64 13.9433 16.88 14.1 17.12 14.335L19.12 16.685H13.92V13.9433H14ZM10.48 20.445C11.28 20.445 11.84 21.0717 11.84 21.7767C11.84 22.56 11.2 23.1083 10.48 23.1083C9.76004 23.1083 9.12004 22.4817 9.12004 21.7767C9.12004 21.0717 9.76004 20.445 10.48 20.445ZM20.96 20.445C21.76 20.445 22.32 21.0717 22.32 21.7767C22.32 22.56 21.68 23.1083 20.96 23.1083C20.24 23.1083 19.6 22.4817 19.6 21.7767C19.6 21.0717 20.24 20.445 20.96 20.445Z" fill="black"/>
</svg>
