<svg width="113" height="36" viewBox="0 0 113 36" fill="none" xmlns="http://www.w3.org/2000/svg">
<path d="M107.889 33.1108H5.11111C2.85103 33.1108 1 31.3036 1 29.097V5.01386C1 2.80724 2.85103 1.00001 5.11111 1.00001H107.889C110.149 1.00001 112 2.80724 112 5.01386V29.097C112 31.3036 110.149 33.1108 107.889 33.1108Z" fill="black"/>
<path d="M107.889 1.64322C109.792 1.64322 111.341 3.15544 111.341 5.01386V29.097C111.341 30.9554 109.792 32.4676 107.889 32.4676H5.11111C3.20767 32.4676 1.65881 30.9554 1.65881 29.097V5.01386C1.65881 3.15544 3.20767 1.64322 5.11111 1.64322H107.889ZM107.889 1.00001H5.11111C2.85103 1.00001 1 2.80724 1 5.01386V29.097C1 31.3036 2.85103 33.1108 5.11111 33.1108H107.889C110.149 33.1108 112 31.3036 112 29.097V5.01386C112 2.80724 110.149 1.00001 107.889 1.00001Z" fill="#A6A6A6"/>
<path d="M39.9848 9.22338C39.9848 9.89369 39.7793 10.4305 39.3743 10.8309C38.9087 11.3056 38.3024 11.5444 37.5593 11.5444C36.8491 11.5444 36.2427 11.3015 35.7452 10.8229C35.2468 10.3372 34.998 9.74116 34.998 9.0277C34.998 8.31424 35.2468 7.71818 35.7452 7.23652C36.2427 6.75386 36.8491 6.51102 37.5593 6.51102C37.9128 6.51102 38.2499 6.58226 38.5716 6.71472C38.8923 6.84818 39.1534 7.0288 39.3425 7.25157L38.9129 7.67503C38.5829 7.29472 38.1338 7.10707 37.5593 7.10707C37.0413 7.10707 36.5921 7.28368 36.2108 7.63991C35.8336 7.99714 35.6445 8.45974 35.6445 9.0277C35.6445 9.59566 35.8336 10.0623 36.2108 10.4195C36.5921 10.7717 37.0413 10.9523 37.5593 10.9523C38.1091 10.9523 38.5716 10.7717 38.9365 10.4155C39.177 10.1797 39.3137 9.85455 39.3497 9.43912H37.5593V8.85912H39.9478C39.9766 8.98455 39.9848 9.10597 39.9848 9.22338V9.22338Z" fill="white" stroke="white" stroke-width="0.16" stroke-miterlimit="10"/>
<path d="M43.7772 7.21241H41.5336V8.73767H43.5563V9.31767H41.5336V10.8429H43.7772V11.434H40.8984V6.62137H43.7772V7.21241Z" fill="white" stroke="white" stroke-width="0.16" stroke-miterlimit="10"/>
<path d="M46.4508 11.434H45.8156V7.21244H44.4395V6.6214H47.828V7.21244H46.4508V11.434V11.434Z" fill="white" stroke="white" stroke-width="0.16" stroke-miterlimit="10"/>
<path d="M50.2812 11.434V6.6214H50.9154V11.434H50.2812Z" fill="white" stroke="white" stroke-width="0.16" stroke-miterlimit="10"/>
<path d="M53.7242 11.434H53.0942V7.21247H51.7129V6.62143H55.1056V7.21247H53.7242V11.434Z" fill="white" stroke="white" stroke-width="0.16" stroke-miterlimit="10"/>
<path d="M61.5222 10.8149C61.036 11.3016 60.4337 11.5444 59.7153 11.5444C58.9928 11.5444 58.3905 11.3016 57.9044 10.8149C57.4193 10.3292 57.1777 9.73317 57.1777 9.02773C57.1777 8.3223 57.4193 7.72624 57.9044 7.24056C58.3905 6.75389 58.9928 6.51105 59.7153 6.51105C60.4296 6.51105 61.0319 6.75389 61.518 7.24458C62.0073 7.73427 62.2488 8.32631 62.2488 9.02773C62.2488 9.73317 62.0073 10.3292 61.5222 10.8149ZM58.3741 10.4115C58.74 10.7717 59.185 10.9524 59.7153 10.9524C60.2415 10.9524 60.6907 10.7717 61.0525 10.4115C61.4173 10.0513 61.6023 9.58867 61.6023 9.02773C61.6023 8.4668 61.4173 8.0042 61.0525 7.64396C60.6907 7.28371 60.2415 7.10309 59.7153 7.10309C59.185 7.10309 58.74 7.28371 58.3741 7.64396C58.0092 8.0042 57.8242 8.4668 57.8242 9.02773C57.8242 9.58867 58.0092 10.0513 58.3741 10.4115V10.4115Z" fill="white" stroke="white" stroke-width="0.16" stroke-miterlimit="10"/>
<path d="M63.1426 11.434V6.62143H63.9134L66.3102 10.3643H66.3379L66.3102 9.43915V6.62143H66.9443V11.434H66.2824L63.7726 7.50648H63.7449L63.7726 8.43569V11.434H63.1426V11.434Z" fill="white" stroke="white" stroke-width="0.16" stroke-miterlimit="10"/>
<path d="M57.0222 18.4623C55.0911 18.4623 53.5134 19.8972 53.5134 21.8771C53.5134 23.8408 55.0911 25.2908 57.0222 25.2908C58.9575 25.2908 60.5352 23.8408 60.5352 21.8771C60.5352 19.8972 58.9575 18.4623 57.0222 18.4623ZM57.0222 23.9462C55.9626 23.9462 55.051 23.0923 55.051 21.8771C55.051 20.6458 55.9626 19.8069 57.0222 19.8069C58.0819 19.8069 58.9976 20.6458 58.9976 21.8771C58.9976 23.0923 58.0819 23.9462 57.0222 23.9462V23.9462ZM49.3663 18.4623C47.431 18.4623 45.8575 19.8972 45.8575 21.8771C45.8575 23.8408 47.431 25.2908 49.3663 25.2908C51.3006 25.2908 52.8752 23.8408 52.8752 21.8771C52.8752 19.8972 51.3006 18.4623 49.3663 18.4623ZM49.3663 23.9462C48.3057 23.9462 47.3909 23.0923 47.3909 21.8771C47.3909 20.6458 48.3057 19.8069 49.3663 19.8069C50.426 19.8069 51.3376 20.6458 51.3376 21.8771C51.3376 23.0923 50.426 23.9462 49.3663 23.9462ZM40.2561 19.5089V20.9599H43.805C43.7012 21.7707 43.4237 22.3667 42.9982 22.7822C42.4802 23.2839 41.6734 23.8408 40.2561 23.8408C38.0721 23.8408 36.3619 22.1199 36.3619 19.9875C36.3619 17.8552 38.0721 16.1342 40.2561 16.1342C41.437 16.1342 42.2962 16.5848 42.9304 17.1688L43.9777 16.1463C43.0907 15.3194 41.9108 14.6842 40.2561 14.6842C37.2612 14.6842 34.7441 17.0634 34.7441 19.9875C34.7441 22.9116 37.2612 25.2908 40.2561 25.2908C41.8749 25.2908 43.0907 24.7731 44.0466 23.8017C45.026 22.8454 45.3313 21.5008 45.3313 20.415C45.3313 20.0778 45.3025 19.7678 45.2511 19.5089H40.2561ZM77.5089 20.6338C77.2201 19.8701 76.329 18.4623 74.514 18.4623C72.7154 18.4623 71.2179 19.8461 71.2179 21.8771C71.2179 23.7897 72.7 25.2908 74.6867 25.2908C76.2931 25.2908 77.2201 24.3345 77.6014 23.7776L76.4092 23.0019C76.0115 23.5699 75.4698 23.9462 74.6867 23.9462C73.9086 23.9462 73.3505 23.598 72.9929 22.9116L77.6703 21.0221L77.5089 20.6338V20.6338ZM72.74 21.7707C72.7 20.4541 73.7874 19.7798 74.5664 19.7798C75.1769 19.7798 75.6949 20.0779 75.8676 20.5043L72.74 21.7707V21.7707ZM68.9383 25.0831H70.4759V15.0485H68.9383V25.0831ZM66.4202 19.2229H66.3689C66.0235 18.8235 65.3647 18.4623 64.5302 18.4623C62.7788 18.4623 61.1776 19.9635 61.1776 21.8881C61.1776 23.8017 62.7788 25.2908 64.5302 25.2908C65.3647 25.2908 66.0235 24.9266 66.3689 24.5152H66.4202V25.0049C66.4202 26.3104 65.7059 27.0118 64.5538 27.0118C63.6144 27.0118 63.0317 26.3495 62.7912 25.7926L61.454 26.3374C61.8394 27.2426 62.86 28.3564 64.5538 28.3564C66.3565 28.3564 67.8776 27.3208 67.8776 24.8011V18.67H66.4202V19.2229V19.2229ZM64.6617 23.9462C63.6021 23.9462 62.7151 23.0802 62.7151 21.8881C62.7151 20.6849 63.6021 19.8069 64.6617 19.8069C65.7059 19.8069 66.5292 20.6849 66.5292 21.8881C66.5292 23.0802 65.7059 23.9462 64.6617 23.9462V23.9462ZM84.7075 15.0485H81.0301V25.0831H82.5635V21.281H84.7075C86.4105 21.281 88.0806 20.0778 88.0806 18.1642C88.0806 16.2516 86.4064 15.0485 84.7075 15.0485V15.0485ZM84.7476 19.8852H82.5635V16.4443H84.7476C85.8925 16.4443 86.5462 17.3725 86.5462 18.1642C86.5462 18.9409 85.8925 19.8852 84.7476 19.8852ZM94.2268 18.4432C93.1188 18.4432 91.9667 18.9209 91.4929 19.9795L92.8537 20.5364C93.1466 19.9795 93.6851 19.7989 94.2545 19.7989C95.05 19.7989 95.8568 20.2655 95.8692 21.0893V21.1947C95.5917 21.0382 94.9976 20.8064 94.2668 20.8064C92.8012 20.8064 91.3079 21.5941 91.3079 23.0642C91.3079 24.4088 92.5083 25.2748 93.8578 25.2748C94.8897 25.2748 95.4591 24.8202 95.8167 24.2914H95.8692V25.0671H97.3502V21.2178C97.3502 19.4386 95.9894 18.4432 94.2268 18.4432ZM94.0418 23.9422C93.5402 23.9422 92.8413 23.6993 92.8413 23.0923C92.8413 22.3156 93.7129 22.0175 94.4673 22.0175C95.1425 22.0175 95.4591 22.163 95.8692 22.3547C95.7489 23.2839 94.9298 23.9422 94.0418 23.9422V23.9422ZM102.746 18.663L100.983 23.013H100.931L99.1087 18.663H97.455L100.193 24.7419L98.6308 28.1246H100.233L104.452 18.663H102.746V18.663ZM88.9234 25.0831H90.461V15.0485H88.9234V25.0831Z" fill="white"/>
<path d="M9.58052 7.05188C9.339 7.29873 9.19922 7.68306 9.19922 8.18078V25.934C9.19922 26.4318 9.339 26.8161 9.58052 27.0629L9.64014 27.1171L19.8295 17.1728V16.938L9.64014 6.99368L9.58052 7.05188Z" fill="url(#paint0_linear_1092_261)"/>
<path d="M23.2208 20.4893L19.8281 17.1728V16.938L23.2249 13.6216L23.301 13.6647L27.3237 15.8994C28.4717 16.5336 28.4717 17.5772 27.3237 18.2154L23.301 20.4461L23.2208 20.4893V20.4893Z" fill="url(#paint1_linear_1092_261)"/>
<path d="M23.3019 20.4461L19.8291 17.0554L9.58008 27.0629C9.96138 27.4543 10.5832 27.5014 11.2903 27.1101L23.3019 20.4461" fill="url(#paint2_linear_1092_261)"/>
<path d="M23.3019 13.6647L11.2903 7.0007C10.5832 6.61336 9.96138 6.66052 9.58008 7.05187L19.8291 17.0554L23.3019 13.6647Z" fill="url(#paint3_linear_1092_261)"/>
<defs>
<linearGradient id="paint0_linear_1092_261" x1="18.9248" y1="26.1189" x2="5.45628" y2="12.324" gradientUnits="userSpaceOnUse">
<stop stop-color="#00A0FF"/>
<stop offset="0.0066" stop-color="#00A1FF"/>
<stop offset="0.2601" stop-color="#00BEFF"/>
<stop offset="0.5122" stop-color="#00D2FF"/>
<stop offset="0.7604" stop-color="#00DFFF"/>
<stop offset="1" stop-color="#00E3FF"/>
</linearGradient>
<linearGradient id="paint1_linear_1092_261" x1="28.8186" y1="17.0543" x2="8.9234" y2="17.0543" gradientUnits="userSpaceOnUse">
<stop stop-color="#FFE000"/>
<stop offset="0.4087" stop-color="#FFBD00"/>
<stop offset="0.7754" stop-color="#FFA500"/>
<stop offset="1" stop-color="#FF9C00"/>
</linearGradient>
<linearGradient id="paint2_linear_1092_261" x1="21.4135" y1="15.2121" x2="3.14905" y2="-3.49487" gradientUnits="userSpaceOnUse">
<stop stop-color="#FF3A44"/>
<stop offset="1" stop-color="#C31162"/>
</linearGradient>
<linearGradient id="paint3_linear_1092_261" x1="7.00019" y1="32.9693" x2="15.1561" y2="24.6159" gradientUnits="userSpaceOnUse">
<stop stop-color="#32A071"/>
<stop offset="0.0685" stop-color="#2DA771"/>
<stop offset="0.4762" stop-color="#15CF74"/>
<stop offset="0.8009" stop-color="#06E775"/>
<stop offset="1" stop-color="#00F076"/>
</linearGradient>
</defs>
</svg>
