<svg width="173" height="55" viewBox="0 0 173 55" fill="none" xmlns="http://www.w3.org/2000/svg">
<rect x="1.5" y="1.5" width="170" height="52" rx="26" fill="white" stroke="#090909" stroke-width="3"/>
<g filter="url(#filter0_ii_2418_58)">
<path d="M19.6679 11.7131C19.307 12.1196 19.0937 12.7506 19.0937 13.5677V42.7608C19.0937 43.5792 19.307 44.2088 19.6679 44.6154L19.7596 44.7104L35.1223 28.3569V28.1642V27.9715L19.7596 11.6167L19.6679 11.7131Z" fill="url(#paint0_linear_2418_58)"/>
<path d="M40.2421 33.8095L35.1221 28.3566V28.1639V27.9711L40.2434 22.5195L40.3587 22.5895L46.4262 26.2591C48.1585 27.3072 48.1585 29.0219 46.4262 30.0713L40.3587 33.7409L40.2421 33.8095Z" fill="url(#paint1_linear_2418_58)"/>
<g filter="url(#filter1_i_2418_58)">
<path d="M40.3591 33.7393L35.1212 28.1636L19.668 44.6147C20.2384 45.2589 21.182 45.3381 22.2447 44.6966L40.3591 33.7393Z" fill="url(#paint2_linear_2418_58)"/>
</g>
<path d="M40.3591 22.5881L22.2447 11.6321C21.182 10.9893 20.2384 11.0698 19.668 11.7139L35.1224 28.1651L40.3591 22.5881Z" fill="url(#paint3_linear_2418_58)"/>
</g>
<path d="M86.6895 29.7611C83.935 29.7611 81.6898 31.9816 81.6898 35.04C81.6898 38.0797 83.935 40.3189 86.6895 40.3189C89.4453 40.3189 91.6904 38.0797 91.6904 35.04C91.6892 31.9816 89.4441 29.7611 86.6895 29.7611ZM86.6895 38.2411C85.1799 38.2411 83.8787 36.9217 83.8787 35.0412C83.8787 33.1409 85.1811 31.8414 86.6895 31.8414C88.1992 31.8414 89.5003 33.1409 89.5003 35.0412C89.5003 36.9204 88.1992 38.2411 86.6895 38.2411ZM75.7813 29.7611C73.0267 29.7611 70.7816 31.9816 70.7816 35.04C70.7816 38.0797 73.0267 40.3189 75.7813 40.3189C78.5371 40.3189 80.7822 38.0797 80.7822 35.04C80.7822 31.9816 78.5371 29.7611 75.7813 29.7611ZM75.7813 38.2411C74.2717 38.2411 72.9705 36.9217 72.9705 35.0412C72.9705 33.1409 74.2728 31.8414 75.7813 31.8414C77.2909 31.8414 78.5921 33.1409 78.5921 35.0412C78.5933 36.9204 77.2909 38.2411 75.7813 38.2411ZM62.8071 31.3821V33.6213H67.8642C67.7132 34.8811 67.3173 35.8008 66.713 36.4401C65.9775 37.2196 64.8262 38.0797 62.8071 38.0797C59.6942 38.0797 57.2605 35.4198 57.2605 32.1206C57.2605 28.8215 59.6942 26.1615 62.8071 26.1615C64.4866 26.1615 65.7128 26.8616 66.6181 27.7615L68.109 26.1814C66.8442 24.9017 65.1659 23.9224 62.8071 23.9224C58.5429 23.9224 54.958 27.6013 54.958 32.1206C54.958 36.6399 58.5429 40.3189 62.8071 40.3189C65.1085 40.3189 66.8453 39.5183 68.2027 38.0189C69.5987 36.5394 70.0332 34.4591 70.0332 32.7797C70.0332 32.2609 69.9958 31.7805 69.9196 31.3809L62.8071 31.3821ZM115.87 33.1211C115.456 31.9419 114.191 29.7611 111.606 29.7611C109.04 29.7611 106.907 31.9009 106.907 35.04C106.907 37.9991 109.021 40.3189 111.851 40.3189C114.133 40.3189 115.454 38.8394 116.003 37.9792L114.304 36.7789C113.739 37.659 112.965 38.2386 111.851 38.2386C110.738 38.2386 109.945 37.6987 109.436 36.6387L116.096 33.7193L115.87 33.1211ZM109.078 34.8811C109.021 32.8405 110.568 31.8016 111.682 31.8016C112.55 31.8016 113.285 32.2621 113.531 32.9212L109.078 34.8811ZM103.663 39.9999H105.851V24.4834H103.663V39.9999ZM100.077 30.9415H100.002C99.5114 30.3209 98.5675 29.7611 97.3799 29.7611C94.8888 29.7611 92.6063 32.0809 92.6063 35.0611C92.6063 38.0202 94.8888 40.3201 97.3799 40.3201C98.5686 40.3201 99.5114 39.7603 100.002 39.1211H100.077V39.8807C100.077 41.9002 99.0582 42.9801 97.4174 42.9801C96.0776 42.9801 95.2472 41.961 94.9076 41.1009L93.0021 41.9412C93.549 43.34 95.0013 45.0604 97.4174 45.0604C99.9834 45.0604 102.154 43.4604 102.154 39.5605V30.0825H100.078L100.077 30.9415ZM97.5685 38.2411C96.0588 38.2411 94.7952 36.9006 94.7952 35.0611C94.7952 33.2005 96.0588 31.8414 97.5685 31.8414C99.0582 31.8414 100.228 33.2005 100.228 35.0611C100.228 36.9006 99.0582 38.2411 97.5685 38.2411ZM126.123 24.4834H120.886V39.9999H123.071V34.1215H126.121C128.543 34.1215 130.926 32.2634 130.926 29.3031C130.926 26.3427 128.545 24.4834 126.123 24.4834ZM126.179 31.9617H123.071V26.6431H126.179C127.813 26.6431 128.74 28.0767 128.74 29.3031C128.74 30.5046 127.813 31.9617 126.179 31.9617ZM139.685 29.7338C138.102 29.7338 136.464 30.4723 135.786 32.1095L137.725 32.9671C138.14 32.1095 138.913 31.8289 139.722 31.8289C140.852 31.8289 142.001 32.5476 142.02 33.8248V33.9849C141.624 33.7454 140.776 33.3867 139.741 33.3867C137.65 33.3867 135.521 34.6043 135.521 36.8795C135.521 38.956 137.236 40.2928 139.157 40.2928C140.625 40.2928 141.436 39.594 141.944 38.7748H142.019V39.9726H144.129V34.0234C144.13 31.2704 142.189 29.7338 139.685 29.7338ZM139.42 38.2374C138.706 38.2374 137.707 37.8576 137.707 36.9192C137.707 35.7214 138.95 35.2622 140.024 35.2622C140.984 35.2622 141.437 35.4819 142.02 35.781C141.85 37.2196 140.683 38.2374 139.42 38.2374ZM151.814 30.0726L149.309 36.8H149.234L146.634 30.0726H144.28L148.179 39.4749L145.956 44.7054H148.235L154.245 30.0726H151.814ZM132.132 39.9999H134.316V24.4834H132.132V39.9999Z" fill="#090909"/>
<path d="M62.5344 15.3053C62.5344 16.3266 62.2443 17.1395 61.6627 17.7464C61.0028 18.4679 60.1416 18.8287 59.0838 18.8287C58.0705 18.8287 57.2081 18.463 56.5002 17.7318C55.7911 16.9993 55.4365 16.0926 55.4365 15.0104C55.4365 13.9269 55.7911 13.0202 56.5002 12.2889C57.2081 11.5565 58.0705 11.1909 59.0838 11.1909C59.5869 11.1909 60.0678 11.2932 60.5242 11.4968C60.9817 11.7015 61.3479 11.9733 61.6218 12.3133L61.0051 12.9568C60.5406 12.3779 59.9005 12.0891 59.0826 12.0891C58.3431 12.0891 57.7042 12.3596 57.1648 12.9007C56.6254 13.4419 56.3562 14.1451 56.3562 15.0091C56.3562 15.8732 56.6254 16.5764 57.1648 17.1176C57.7042 17.6587 58.3431 17.9292 59.0826 17.9292C59.8666 17.9292 60.5207 17.6575 61.0437 17.1127C61.3831 16.758 61.5796 16.2644 61.6323 15.6319H59.0826V14.7532H62.4841C62.5192 14.9446 62.5344 15.1286 62.5344 15.3053Z" fill="#090909"/>
<path d="M67.9288 12.2512H64.732V14.5693H67.6152V15.448H64.732V17.766H67.9288V18.6654H63.8299V11.353H67.9288V12.2512Z" fill="#090909"/>
<path d="M71.7327 18.6654H70.8305V12.2512H68.8694V11.353H73.6938V12.2512H71.7327V18.6654Z" fill="#090909"/>
<path d="M77.1842 18.6654V11.353H78.0864V18.6654H77.1842Z" fill="#090909"/>
<path d="M82.0872 18.6654H81.185V12.2512H79.2239V11.353H84.0483V12.2512H82.0872V18.6654Z" fill="#090909"/>
<path d="M93.1808 17.7209C92.4904 18.4594 91.6327 18.8287 90.6065 18.8287C89.5803 18.8287 88.7227 18.4594 88.0335 17.7209C87.3431 16.9823 86.9991 16.078 86.9991 15.0092C86.9991 13.9404 87.3431 13.0361 88.0335 12.2975C88.7227 11.559 89.5803 11.1885 90.6065 11.1885C91.6269 11.1885 92.4834 11.5602 93.1761 12.3024C93.8688 13.0446 94.2152 13.9465 94.2152 15.0092C94.2152 16.078 93.87 16.9823 93.1808 17.7209ZM88.6993 17.1079C89.2188 17.6563 89.8542 17.9293 90.6065 17.9293C91.3589 17.9293 91.9955 17.6551 92.5138 17.1079C93.0334 16.5594 93.2943 15.8599 93.2943 15.0092C93.2943 14.1585 93.0334 13.459 92.5138 12.9105C91.9955 12.3621 91.3589 12.0891 90.6065 12.0891C89.8542 12.0891 89.2188 12.3633 88.6993 12.9105C88.1809 13.459 87.92 14.1585 87.92 15.0092C87.92 15.8599 88.1809 16.5594 88.6993 17.1079Z" fill="#090909"/>
<path d="M95.4813 18.6654V11.353H96.5788L99.9909 17.0408H100.03L99.9909 15.632V11.353H100.893V18.6654H99.9511L96.3811 12.7009H96.3425L96.3811 14.1098V18.6654H95.4813Z" fill="#090909"/>
<path d="M62.5344 15.3053C62.5344 16.3266 62.2443 17.1395 61.6627 17.7464C61.0028 18.4679 60.1416 18.8287 59.0838 18.8287C58.0705 18.8287 57.2081 18.463 56.5002 17.7318C55.7911 16.9993 55.4365 16.0926 55.4365 15.0104C55.4365 13.9269 55.7911 13.0202 56.5002 12.2889C57.2081 11.5565 58.0705 11.1909 59.0838 11.1909C59.5869 11.1909 60.0678 11.2932 60.5242 11.4968C60.9817 11.7015 61.3479 11.9733 61.6218 12.3133L61.0051 12.9568C60.5406 12.3779 59.9005 12.0891 59.0826 12.0891C58.3431 12.0891 57.7042 12.3596 57.1648 12.9007C56.6254 13.4419 56.3562 14.1451 56.3562 15.0091C56.3562 15.8732 56.6254 16.5764 57.1648 17.1176C57.7042 17.6587 58.3431 17.9292 59.0826 17.9292C59.8666 17.9292 60.5207 17.6575 61.0437 17.1127C61.3831 16.758 61.5796 16.2644 61.6323 15.6319H59.0826V14.7532H62.4841C62.5192 14.9446 62.5344 15.1286 62.5344 15.3053Z" stroke="white" stroke-width="0.204511" stroke-miterlimit="10"/>
<path d="M67.9288 12.2512H64.732V14.5693H67.6152V15.448H64.732V17.766H67.9288V18.6654H63.8299V11.353H67.9288V12.2512Z" stroke="white" stroke-width="0.204511" stroke-miterlimit="10"/>
<path d="M71.7327 18.6654H70.8305V12.2512H68.8694V11.353H73.6938V12.2512H71.7327V18.6654Z" stroke="white" stroke-width="0.204511" stroke-miterlimit="10"/>
<path d="M77.1842 18.6654V11.353H78.0864V18.6654H77.1842Z" stroke="white" stroke-width="0.204511" stroke-miterlimit="10"/>
<path d="M82.0872 18.6654H81.185V12.2512H79.2239V11.353H84.0483V12.2512H82.0872V18.6654Z" stroke="white" stroke-width="0.204511" stroke-miterlimit="10"/>
<path d="M93.1808 17.7209C92.4904 18.4594 91.6327 18.8287 90.6065 18.8287C89.5803 18.8287 88.7227 18.4594 88.0335 17.7209C87.3431 16.9823 86.9991 16.078 86.9991 15.0092C86.9991 13.9404 87.3431 13.0361 88.0335 12.2975C88.7227 11.559 89.5803 11.1885 90.6065 11.1885C91.6269 11.1885 92.4834 11.5602 93.1761 12.3024C93.8688 13.0446 94.2152 13.9465 94.2152 15.0092C94.2152 16.078 93.87 16.9823 93.1808 17.7209ZM88.6993 17.1079C89.2188 17.6563 89.8542 17.9293 90.6065 17.9293C91.3589 17.9293 91.9955 17.6551 92.5138 17.1079C93.0334 16.5594 93.2943 15.8599 93.2943 15.0092C93.2943 14.1585 93.0334 13.459 92.5138 12.9105C91.9955 12.3621 91.3589 12.0891 90.6065 12.0891C89.8542 12.0891 89.2188 12.3633 88.6993 12.9105C88.1809 13.459 87.92 14.1585 87.92 15.0092C87.92 15.8599 88.1809 16.5594 88.6993 17.1079Z" stroke="white" stroke-width="0.204511" stroke-miterlimit="10"/>
<path d="M95.4813 18.6654V11.353H96.5788L99.9909 17.0408H100.03L99.9909 15.632V11.353H100.893V18.6654H99.9511L96.3811 12.7009H96.3425L96.3811 14.1098V18.6654H95.4813Z" stroke="white" stroke-width="0.204511" stroke-miterlimit="10"/>
<defs>
<filter id="filter0_ii_2418_58" x="19.0938" y="11.1885" width="28.6318" height="33.9512" filterUnits="userSpaceOnUse" color-interpolation-filters="sRGB">
<feFlood flood-opacity="0" result="BackgroundImageFix"/>
<feBlend mode="normal" in="SourceGraphic" in2="BackgroundImageFix" result="shape"/>
<feColorMatrix in="SourceAlpha" type="matrix" values="0 0 0 0 0 0 0 0 0 0 0 0 0 0 0 0 0 0 127 0" result="hardAlpha"/>
<feOffset dy="-0.795"/>
<feComposite in2="hardAlpha" operator="arithmetic" k2="-1" k3="1"/>
<feColorMatrix type="matrix" values="0 0 0 0 0 0 0 0 0 0 0 0 0 0 0 0 0 0 0.12 0"/>
<feBlend mode="normal" in2="shape" result="effect1_innerShadow_2418_58"/>
<feColorMatrix in="SourceAlpha" type="matrix" values="0 0 0 0 0 0 0 0 0 0 0 0 0 0 0 0 0 0 127 0" result="hardAlpha"/>
<feOffset dy="0.795"/>
<feComposite in2="hardAlpha" operator="arithmetic" k2="-1" k3="1"/>
<feColorMatrix type="matrix" values="0 0 0 0 1 0 0 0 0 1 0 0 0 0 1 0 0 0 0.25 0"/>
<feBlend mode="normal" in2="effect1_innerShadow_2418_58" result="effect2_innerShadow_2418_58"/>
</filter>
<filter id="filter1_i_2418_58" x="19.668" y="28.1636" width="20.6914" height="16.9761" filterUnits="userSpaceOnUse" color-interpolation-filters="sRGB">
<feFlood flood-opacity="0" result="BackgroundImageFix"/>
<feBlend mode="normal" in="SourceGraphic" in2="BackgroundImageFix" result="shape"/>
<feColorMatrix in="SourceAlpha" type="matrix" values="0 0 0 0 0 0 0 0 0 0 0 0 0 0 0 0 0 0 127 0" result="hardAlpha"/>
<feOffset dy="-0.795"/>
<feComposite in2="hardAlpha" operator="arithmetic" k2="-1" k3="1"/>
<feColorMatrix type="matrix" values="0 0 0 0 0 0 0 0 0 0 0 0 0 0 0 0 0 0 0.08 0"/>
<feBlend mode="normal" in2="shape" result="effect1_innerShadow_2418_58"/>
</filter>
<linearGradient id="paint0_linear_2418_58" x1="33.7605" y1="13.2588" x2="11.6515" y2="34.0283" gradientUnits="userSpaceOnUse">
<stop stop-color="#00A0FF"/>
<stop offset="0.0066" stop-color="#00A1FF"/>
<stop offset="0.2601" stop-color="#00BEFF"/>
<stop offset="0.5122" stop-color="#00D2FF"/>
<stop offset="0.7604" stop-color="#00DFFF"/>
<stop offset="1" stop-color="#00E3FF"/>
</linearGradient>
<linearGradient id="paint1_linear_2418_58" x1="48.6811" y1="28.1639" x2="18.6776" y2="28.1639" gradientUnits="userSpaceOnUse">
<stop stop-color="#FFE000"/>
<stop offset="0.4087" stop-color="#FFBD00"/>
<stop offset="0.7754" stop-color="#FFA500"/>
<stop offset="1" stop-color="#FF9C00"/>
</linearGradient>
<linearGradient id="paint2_linear_2418_58" x1="37.5146" y1="31.1915" x2="7.53191" y2="59.3576" gradientUnits="userSpaceOnUse">
<stop stop-color="#FF3A44"/>
<stop offset="1" stop-color="#C31162"/>
</linearGradient>
<linearGradient id="paint3_linear_2418_58" x1="15.776" y1="1.99583" x2="29.1641" y2="14.5728" gradientUnits="userSpaceOnUse">
<stop stop-color="#32A071"/>
<stop offset="0.0685" stop-color="#2DA771"/>
<stop offset="0.4762" stop-color="#15CF74"/>
<stop offset="0.8009" stop-color="#06E775"/>
<stop offset="1" stop-color="#00F076"/>
</linearGradient>
</defs>
</svg>
