<svg width="60" height="60" viewBox="0 0 60 60" fill="none" xmlns="http://www.w3.org/2000/svg">
<path d="M8.6248 31.575C8.7748 31.2 8.77481 30.825 8.84981 30.45C9.14981 28.5 9.74981 26.7 10.5748 24.975C10.6498 24.75 10.7248 24.675 10.9498 24.825C11.2498 24.975 11.4748 25.125 11.7748 25.275C12.1498 25.425 12.4498 25.35 12.6748 25.05C12.8248 24.75 12.7498 24.375 12.4498 24.15C12.1498 24 11.8498 23.775 11.5498 23.625C11.3998 23.55 11.3998 23.475 11.4748 23.325C12.8998 21.15 14.6248 19.425 16.7998 18C16.9498 17.925 17.0248 17.925 17.0998 18.075C17.2498 18.375 17.3998 18.675 17.5498 18.9C17.7748 19.275 18.1498 19.35 18.4498 19.2C18.7498 19.05 18.8248 18.675 18.6748 18.3C18.5248 18 18.3748 17.7 18.2248 17.475C18.1498 17.325 18.1498 17.25 18.2998 17.175C20.0998 16.275 21.9748 15.675 23.9248 15.375C24.4498 15.3 24.9748 15.3 25.4248 15.225C25.6498 15.225 25.7998 15.225 25.7248 15.525C25.7248 15.825 25.7248 16.125 25.7248 16.425C25.7248 16.8 26.0248 17.1 26.3998 17.025C26.7748 17.025 26.9998 16.725 26.9998 16.425C26.9998 16.125 26.9998 15.825 26.9998 15.525C26.9998 15.3 27.0748 15.225 27.2998 15.225C28.8748 15.3 30.4498 15.6 31.9498 16.125C32.8498 16.425 33.6748 16.8 34.4998 17.175C34.6498 17.25 34.7248 17.325 34.5748 17.475C34.4248 17.775 34.2748 18 34.0498 18.3C33.8248 18.675 33.9748 19.05 34.2748 19.2C34.5748 19.35 34.9498 19.275 35.1748 18.9C35.3248 18.6 35.4748 18.375 35.6248 18.075C35.6998 17.925 35.7748 17.85 35.9248 18C38.0998 19.425 39.8248 21.15 41.2498 23.325C41.3248 23.475 41.3248 23.55 41.1748 23.625C40.8748 23.775 40.5748 23.925 40.3498 24.075C39.9748 24.3 39.8998 24.675 40.0498 24.975C40.1998 25.275 40.5748 25.35 40.9498 25.2C41.2498 25.05 41.5498 24.9 41.7748 24.75C41.9248 24.675 41.9998 24.675 42.0748 24.825C42.9748 26.55 43.5748 28.35 43.7998 30.3C43.8748 30.9 43.9498 31.5 44.0248 32.1C44.0248 32.25 44.0248 32.325 43.7998 32.325C43.4998 32.325 43.1998 32.325 42.8998 32.325C42.4498 32.325 42.1498 32.55 42.1498 32.925C42.1498 33.3 42.4498 33.6 42.8998 33.6C43.1998 33.6 43.4998 33.6 43.7998 33.6C43.9498 33.6 44.0248 33.675 44.0248 33.825C43.8748 36.075 43.3498 38.325 42.4498 40.35C42.3748 40.5 42.2998 40.575 42.1498 40.575C41.9248 40.575 41.6998 40.575 41.5498 40.65C41.1748 40.725 40.9498 41.025 41.0248 41.4C41.0998 41.7 41.3248 41.925 41.6998 41.925C42.0748 41.925 42.4498 41.85 42.7498 42C43.5748 42.3 44.1748 43.125 44.0248 44.025C44.0248 45 43.2748 45.75 42.3748 45.75C42.2248 45.75 42.1498 45.75 41.9998 45.75C38.9248 45.75 35.7748 45.75 32.6998 45.75C32.5498 45.75 32.4748 45.75 32.2498 45.75C36.6748 43.425 39.4498 39.975 40.1248 35.025C40.7998 30.15 39.2248 25.95 35.5498 22.575C29.6998 17.25 20.2498 18.075 15.3748 24.3C12.5998 27.825 11.6998 31.8 12.6748 36.15C13.6498 40.5 16.3498 43.575 20.3248 45.6C20.2498 45.825 20.0998 45.75 20.0248 45.75C16.9498 45.75 13.9498 45.75 10.8748 45.75C9.5248 45.75 9.0748 45.45 8.5498 44.175C8.5498 43.95 8.5498 43.725 8.5498 43.5C8.7748 42.375 9.44981 41.85 10.5748 41.85C10.7248 41.85 10.8748 41.85 11.0248 41.85C11.3248 41.85 11.5498 41.625 11.6248 41.4C11.6998 41.175 11.4748 40.875 11.2498 40.8C11.0248 40.725 10.7998 40.725 10.4998 40.65C10.2748 40.65 10.1998 40.5 10.0498 40.35C9.2998 38.625 8.6998 36.825 8.6248 34.95C8.6248 34.725 8.6248 34.425 8.5498 34.2C8.5498 34.05 8.5498 33.825 8.5498 33.675C8.6998 33.525 8.84981 33.6 9.07481 33.6C9.37481 33.6 9.6748 33.6 9.8998 33.525C10.1248 33.45 10.2748 33.3 10.2748 33C10.2748 32.7 10.1248 32.55 9.8998 32.475C9.5998 32.4 9.29981 32.4 9.07481 32.4C8.92481 32.4 8.6998 32.4 8.5498 32.325C8.6248 32.175 8.6248 31.875 8.6248 31.575Z" fill="black"/>
<path d="M26.3996 45.75C19.4246 45.75 13.7246 40.125 13.7246 33.075C13.7246 26.1 19.3496 20.4 26.3996 20.325C33.3746 20.325 39.0746 25.95 39.1496 33C39.0746 40.05 33.3746 45.75 26.3996 45.75Z" fill="#FF3A44"/>
<path d="M37.7998 33.15C37.7998 39.375 32.6998 44.475 26.3248 44.475C20.3248 44.475 14.9248 39.75 14.9248 33.15C14.9248 26.775 20.0248 21.675 26.3248 21.6C32.6248 21.675 37.7998 26.775 37.7998 33.15Z" fill="#FEFEFE"/>
<path d="M26.3993 22.95C26.6993 22.95 26.9993 23.025 27.2993 23.025C27.5993 23.025 27.6743 23.1 27.5993 23.4C27.5243 24.675 27.4493 25.95 27.3743 27.225C27.3743 27.45 27.3743 27.675 27.3743 27.975C27.3743 28.5 27.5993 28.875 28.0493 29.1C28.7243 29.4 29.2493 29.85 29.7743 30.375C30.2243 30.825 30.7493 30.825 31.3493 30.6C32.6993 30.075 33.9743 29.55 35.3243 29.025C35.6243 28.875 35.6993 28.95 35.8493 29.25C36.0743 29.85 36.2993 30.45 36.3743 31.05C36.4493 31.275 36.3743 31.35 36.1493 31.425C34.7993 31.8 33.4493 32.1 32.0993 32.475C31.1993 32.7 30.8993 33 30.8243 33.9C30.7493 34.425 30.5993 34.95 30.2993 35.4C29.9243 36.075 29.9243 36.525 30.4493 37.2C31.3493 38.25 32.2493 39.375 33.1493 40.425C33.2993 40.65 33.2993 40.725 33.0743 40.875C32.5493 41.325 32.0243 41.7 31.4993 42C31.2743 42.15 31.1993 42.075 31.1243 41.925C30.3743 40.725 29.6243 39.6 28.8743 38.4C28.4993 37.8 27.9743 37.5 27.2243 37.65C26.6243 37.8 26.0243 37.725 25.4993 37.65C24.8243 37.5 24.3743 37.725 23.9993 38.325C23.2493 39.525 22.4993 40.725 21.7493 41.925C21.5993 42.15 21.5243 42.15 21.2993 42C20.7743 41.625 20.2493 41.325 19.7243 40.875C19.4993 40.575 19.4993 40.5 19.6493 40.275C20.5493 39.225 21.4493 38.175 22.2743 37.05C22.7993 36.375 22.8743 36 22.4243 35.25C22.1243 34.725 21.9743 34.2 21.8993 33.675C21.8243 32.925 21.5243 32.55 20.7743 32.4C19.4243 32.025 17.9993 31.65 16.6493 31.35C16.3493 31.275 16.2743 31.125 16.3493 30.9C16.4993 30.3 16.7243 29.7 16.9493 29.175C17.0243 28.95 17.0993 28.95 17.3243 29.025C18.6743 29.55 19.9493 30.075 21.2993 30.6C22.0493 30.9 22.4993 30.825 23.0993 30.225C23.4743 29.85 23.9243 29.475 24.4493 29.25C25.1243 28.95 25.4243 28.5 25.3493 27.75C25.2743 26.325 25.1993 24.9 25.0493 23.55C25.0493 23.25 25.0493 23.025 25.4243 23.1C25.7993 23.025 26.0993 22.95 26.3993 22.95Z" fill="#E61717"/>
<path d="M26.3248 36.225C24.5998 36.225 23.1748 34.725 23.1748 33C23.1748 31.2 24.6748 29.85 26.3998 29.85C28.1248 29.85 29.4748 31.275 29.4748 33C29.5498 34.875 28.1248 36.3 26.3248 36.225Z" fill="#FEFEFE"/>
<path d="M28.2752 33.15C28.2752 34.2 27.3752 35.025 26.3252 35.025C25.2752 35.025 24.4502 34.125 24.4502 33.075C24.4502 32.025 25.3502 31.2 26.4002 31.2C27.4502 31.2 28.2752 32.1 28.2752 33.15Z" fill="black"/>
<path d="M43.0498 37.05C43.1998 36.9 43.2748 36.825 43.4998 36.9C44.1748 37.125 44.6248 37.725 44.6248 38.4C44.6248 38.775 44.6248 39.225 44.6248 39.6C44.6248 40.125 44.8498 40.65 45.2998 40.95C45.8998 41.4 46.5748 41.475 47.1748 41.175C47.8498 40.875 48.2248 40.275 48.2248 39.525C48.2248 37.05 48.2248 34.5 48.2248 32.025C48.2248 29.475 48.2248 26.925 48.2248 24.375C48.2248 24.225 48.2248 24.15 48.4498 24.075C48.7498 24 48.9748 23.85 49.0498 23.55C49.1248 23.25 49.2748 23.25 49.4998 23.25C49.9498 23.25 49.9498 23.25 50.0248 23.7C50.0248 24 50.2498 24.15 50.4748 24.15C50.6998 24.15 50.9248 24 50.9248 23.7C50.9248 23.1 50.9248 22.5 50.9248 21.9C50.9248 21.6 50.6998 21.45 50.4748 21.45C50.2498 21.45 50.0248 21.6 50.0248 21.9C49.9498 22.35 49.9498 22.35 49.5748 22.35C49.4998 22.35 49.4248 22.35 49.4248 22.35C49.1998 22.35 49.1248 22.35 49.1998 22.125C49.1998 21.9 49.1998 21.675 49.1998 21.45C49.1998 21.225 49.2748 21.15 49.4248 21.075C50.9248 20.325 51.7498 18.675 51.3748 17.025C50.9998 15.375 49.5748 14.175 47.9248 14.175C46.1998 14.175 44.6998 15.3 44.3248 16.95C43.9498 18.6 44.6998 20.325 46.2748 21.075C46.4248 21.15 46.4998 21.225 46.4998 21.45C46.4998 22.05 46.4998 22.65 46.4998 23.25C46.4998 23.625 46.6498 24 47.0248 24C47.5498 24.075 47.4748 24.45 47.4748 24.75C47.4748 24.9 47.4748 25.05 47.4748 25.2C47.4748 30 47.4748 34.725 47.4748 39.525C47.4748 40.125 47.0998 40.5 46.5748 40.5C46.0498 40.5 45.6748 40.125 45.6748 39.525C45.6748 39.15 45.6748 38.85 45.6748 38.475C45.5998 37.425 45.1498 36.6 44.0998 36.15C43.8748 36.075 43.8748 36 44.0248 35.85" fill="#FF3A44"/>
<path d="M47.7752 20.55C46.2752 20.55 45.0752 19.35 45.0752 17.775C45.0752 16.275 46.3502 15.075 47.7752 15.075C49.2752 15.075 50.4752 16.35 50.4752 17.85C50.4752 19.35 49.2752 20.55 47.7752 20.55Z" fill="#FEFEFE"/>
<path d="M48.2252 22.35C48.2252 22.425 48.2252 22.5 48.2252 22.575C48.2252 23.325 48.2252 23.325 47.4752 23.25C47.4002 23.25 47.3252 23.25 47.3252 23.1C47.3252 22.575 47.3252 22.05 47.3252 21.6C47.3252 21.525 47.3252 21.45 47.4752 21.45C48.2252 21.45 48.2252 21.45 48.2252 22.125C48.2252 22.2 48.2252 22.275 48.2252 22.35Z" fill="#FEFEFE"/>
<path d="M47.7743 18.375C47.5493 18.375 47.3993 18.225 47.3243 18.075C47.2493 17.85 47.3243 17.7 47.4743 17.625C47.9993 17.25 48.4493 16.875 48.9743 16.575C49.0493 16.5 49.1243 16.5 49.1993 16.575C49.2743 16.65 49.2743 16.725 49.1993 16.8C48.8243 17.325 48.5243 17.775 48.1493 18.3C47.9993 18.3 47.8493 18.3 47.7743 18.375Z" fill="#010101"/>
</svg>
